<svg width="60" height="60" viewBox="0 0 60 60" fill="none" xmlns="http://www.w3.org/2000/svg">
<circle cx="30" cy="30" r="30" fill="url(#paint0_linear_6_424)"/>
<path d="M35.5571 37.6569C35.5597 37.4864 35.6293 37.3237 35.7508 37.2041C35.8724 37.0844 36.0361 37.0173 36.2066 37.0173C36.3772 37.0173 36.5409 37.0844 36.6624 37.2041C36.7839 37.3238 36.8535 37.4864 36.8561 37.657C36.8535 37.8275 36.7839 37.9901 36.6624 38.1098C36.5408 38.2295 36.3771 38.2966 36.2066 38.2966C36.036 38.2965 35.8723 38.2295 35.7508 38.1098C35.6293 37.9901 35.5597 37.8275 35.5571 37.6569ZM39.2789 31.5914C39.2774 31.4209 39.2086 31.2579 39.0875 31.1378C38.9664 31.0178 38.8028 30.9504 38.6323 30.9504C38.4618 30.9504 38.2981 31.0178 38.177 31.1378C38.0559 31.2579 37.9871 31.4209 37.9856 31.5914C37.9871 31.7619 38.0559 31.9249 38.177 32.045C38.2981 32.165 38.4617 32.2324 38.6322 32.2324C38.8028 32.2324 38.9664 32.165 39.0875 32.045C39.2086 31.925 39.2774 31.7619 39.2789 31.5914ZM39.2789 26.7401C39.2774 26.5696 39.2086 26.4066 39.0875 26.2865C38.9664 26.1665 38.8028 26.0991 38.6323 26.0991C38.4618 26.0991 38.2981 26.1665 38.177 26.2865C38.0559 26.4065 37.9871 26.5696 37.9856 26.7401C37.9871 26.9106 38.0559 27.0736 38.177 27.1937C38.2981 27.3137 38.4617 27.3811 38.6322 27.3811C38.8028 27.3811 38.9664 27.3137 39.0875 27.1937C39.2086 27.0736 39.2774 26.9106 39.2789 26.7401ZM36.8561 20.6689C36.8522 20.4993 36.782 20.3379 36.6607 20.2192C36.5393 20.1006 36.3763 20.0342 36.2066 20.0342C36.0369 20.0342 35.8739 20.1006 35.7526 20.2192C35.6312 20.3378 35.561 20.4992 35.5571 20.6689C35.561 20.8386 35.6312 21 35.7525 21.1186C35.8739 21.2372 36.0369 21.3036 36.2066 21.3036C36.3763 21.3036 36.5393 21.2372 36.6607 21.1186C36.782 21 36.8522 20.8386 36.8561 20.6689ZM44.9604 32.1675L43.0628 27.0564C43.0406 26.9928 43.0292 26.926 43.029 26.8587L43.0288 24.9329C43.0693 18.235 36.8434 14.32 30.7059 14.2758V21.3184H31.7281L32.7729 20.2736C32.8252 20.2202 32.8875 20.1777 32.9564 20.1487C33.0252 20.1196 33.0991 20.1044 33.1739 20.1042L34.5293 20.1042C34.6633 19.7051 34.9348 19.3667 35.2953 19.1493C35.6559 18.932 36.0819 18.85 36.4974 18.9179C36.9129 18.9857 37.2907 19.1991 37.5633 19.5199C37.8359 19.8407 37.9856 20.248 37.9856 20.6689C37.9856 21.0899 37.8359 21.4972 37.5633 21.818C37.2907 22.1387 36.9129 22.3521 36.4974 22.42C36.0819 22.4879 35.6559 22.4059 35.2953 22.1885C34.9348 21.9712 34.6633 21.6328 34.5293 21.2337H33.4054L32.3606 22.2841C32.2523 22.3873 32.1091 22.4458 31.9596 22.4479H30.7059V24.3512H33.7782C33.8712 24.3514 33.9628 24.3748 34.0446 24.4191C34.1264 24.4635 34.1959 24.5275 34.2469 24.6053L35.2917 26.1697L36.9578 26.1698C37.0937 25.7717 37.3668 25.435 37.7281 25.2197C38.0895 25.0045 38.5156 24.9247 38.9304 24.9946C39.3451 25.0646 39.7215 25.2797 39.9923 25.6016C40.263 25.9235 40.4105 26.3311 40.4084 26.7518C40.4063 27.1724 40.2547 27.5785 39.9808 27.8977C39.7068 28.2168 39.3283 28.4282 38.9129 28.494C38.4974 28.5598 38.0721 28.4757 37.7129 28.2569C37.3537 28.038 37.0841 27.6985 36.9521 27.2992L34.9924 27.2992C34.8997 27.3001 34.8083 27.2778 34.7265 27.2344C34.6446 27.191 34.5749 27.1279 34.5236 27.0507L33.4788 25.4807H30.7059V28.5982H34.3881C34.5358 28.6013 34.6764 28.6622 34.7798 28.7677C34.8832 28.8733 34.9411 29.0152 34.9411 29.163C34.9411 29.3107 34.8832 29.4526 34.7798 29.5582C34.6764 29.6638 34.5358 29.7246 34.388 29.7277H30.7059V32.8452H33.4788L34.5236 31.2752C34.5749 31.198 34.6446 31.1349 34.7265 31.0915C34.8083 31.0481 34.8997 31.0258 34.9924 31.0267H36.9577C37.0937 30.6293 37.3665 30.2932 37.7273 30.0784C38.0882 29.8636 38.5137 29.784 38.9279 29.854C39.342 29.9239 39.7177 30.1388 39.9881 30.4602C40.2584 30.7817 40.4056 31.1887 40.4035 31.6087C40.4014 32.0287 40.2501 32.4342 39.9766 32.7529C39.7031 33.0716 39.3252 33.2827 38.9104 33.3485C38.4956 33.4143 38.0709 33.3306 37.7122 33.1121C37.3534 32.8937 37.084 32.5549 36.9521 32.1562H35.2917L34.2469 33.7206C34.1959 33.7984 34.1264 33.8624 34.0446 33.9068C33.9628 33.9511 33.8712 33.9745 33.7781 33.9747H30.7059V35.8779H31.9596C32.1096 35.8775 32.2538 35.9364 32.3606 36.0417L33.4054 37.0922L34.5292 37.0923C34.6632 36.6932 34.9348 36.3547 35.2953 36.1374C35.6558 35.9201 36.0819 35.838 36.4974 35.9059C36.9129 35.9738 37.2907 36.1872 37.5633 36.508C37.8359 36.8287 37.9856 37.236 37.9856 37.657C37.9856 38.078 37.8359 38.4852 37.5633 38.806C37.2907 39.1268 36.9129 39.3402 36.4974 39.4081C36.0819 39.476 35.6558 39.3939 35.2953 39.1766C34.9348 38.9592 34.6632 38.6208 34.5292 38.2217H33.1739C33.0991 38.2214 33.0252 38.2063 32.9564 38.1772C32.8875 38.1481 32.8252 38.1057 32.7729 38.0523L31.7281 37.0075H30.7059V44.7842L35.1392 45.75V43.3102C35.1391 43.0632 35.1877 42.8186 35.2822 42.5904C35.3767 42.3622 35.5152 42.1549 35.6899 41.9802C35.8645 41.8055 36.0719 41.667 36.3001 41.5725C36.5283 41.4781 36.7729 41.4295 37.0199 41.4296H40.9676C41.5154 41.4268 42.0398 41.2072 42.4262 40.8188C42.8125 40.4304 43.0292 39.9047 43.029 39.3569L43.0289 34.0933C43.0626 33.1576 44.7063 33.6439 45 32.8622C45.0501 32.7518 45.0727 32.6309 45.0658 32.5099C45.059 32.3889 45.0228 32.2714 44.9604 32.1675ZM29.5763 37.4423V21.4935C19.714 22.4777 19.7067 36.4496 29.5763 37.4423ZM28.1079 14.818C28.1802 15.235 28.0924 15.6639 27.862 16.0189C27.6317 16.3739 27.2757 16.6288 26.8654 16.7326C25.6647 17.0368 24.5139 17.5123 23.4486 18.1445C23.0896 18.3564 22.6649 18.4281 22.2562 18.3457C21.8475 18.2634 21.4837 18.0328 21.2348 17.6983C21.1839 17.6417 21.122 17.5961 21.053 17.5642C20.9839 17.5323 20.9091 17.5148 20.833 17.5126C20.7569 17.5105 20.6813 17.5239 20.6105 17.5519C20.5398 17.58 20.4755 17.6221 20.4215 17.6757L18.3489 19.7484C18.2922 19.805 18.2483 19.8731 18.2204 19.9482C18.1924 20.0233 18.181 20.1035 18.1869 20.1834C18.1928 20.2633 18.2159 20.341 18.2546 20.4111C18.2932 20.4813 18.3466 20.5422 18.411 20.5899C18.7305 20.8441 18.948 21.2048 19.0236 21.606C19.0993 22.0073 19.0282 22.4224 18.8232 22.7755C18.1859 23.8409 17.7083 24.994 17.4057 26.198C17.3036 26.5935 17.0609 26.9383 16.7232 27.168C16.3854 27.3976 15.9756 27.4965 15.5702 27.4461C15.4911 27.4357 15.4106 27.4423 15.3342 27.4653C15.2578 27.4883 15.1871 27.5272 15.1268 27.5795C15.0665 27.6318 15.018 27.6962 14.9844 27.7686C14.9509 27.8411 14.933 27.9198 14.9321 27.9996V30.9307C14.9329 31.0102 14.9504 31.0888 14.9835 31.1611C15.0165 31.2335 15.0644 31.2981 15.124 31.3508C15.1837 31.4035 15.2537 31.4431 15.3296 31.4671C15.4055 31.491 15.4855 31.4988 15.5646 31.4898C15.9719 31.4362 16.3847 31.5344 16.7242 31.7656C17.0637 31.9968 17.3063 32.3449 17.4057 32.7435C17.7109 33.944 18.1864 35.0946 18.8175 36.1603C19.03 36.5197 19.1015 36.9452 19.018 37.3543C18.9345 37.7634 18.702 38.1268 18.3657 38.3742C18.3104 38.426 18.266 38.4884 18.2351 38.5576C18.2042 38.6268 18.1875 38.7015 18.1859 38.7773C18.1843 38.8531 18.1979 38.9284 18.2259 38.9989C18.2539 39.0693 18.2957 39.1334 18.3488 39.1875L20.4215 41.2601C20.4786 41.3159 20.5469 41.3588 20.6219 41.3862C20.6968 41.4136 20.7767 41.4247 20.8563 41.4188C20.9359 41.4129 21.0133 41.3902 21.0834 41.3521C21.1535 41.3141 21.2148 41.2615 21.263 41.198C21.5163 40.8771 21.877 40.6586 22.2787 40.5829C22.6804 40.5071 23.0959 40.5791 23.4487 40.7857C24.5152 41.4207 25.6679 41.8981 26.8711 42.2033C27.2335 42.2939 27.555 42.5034 27.7843 42.7982C28.0136 43.0931 28.1375 43.4563 28.1362 43.8298C28.1057 43.9406 28.1001 44.0567 28.1196 44.1699C28.1391 44.2831 28.1833 44.3907 28.2491 44.4849C28.4922 44.796 29.2366 44.6306 29.5763 44.6713V38.5719C18.2083 37.5206 18.2186 21.4101 29.5764 20.364L29.5763 14.2589C29.0684 14.2982 28.1497 14.0484 28.1079 14.818Z" fill="url(#paint1_linear_6_424)"/>
<defs>
<linearGradient id="paint0_linear_6_424" x1="30" y1="0" x2="30" y2="60" gradientUnits="userSpaceOnUse">
<stop stop-color="#FFFBE7"/>
<stop offset="1" stop-color="#FFF1A0"/>
</linearGradient>
<linearGradient id="paint1_linear_6_424" x1="29.9993" y1="45.7488" x2="29.9994" y2="14.25" gradientUnits="userSpaceOnUse">
<stop offset="0.120186" stop-color="#FFD400"/>
<stop offset="1" stop-color="#FE2404"/>
</linearGradient>
</defs>
</svg>
