<svg width="60" height="60" viewBox="0 0 60 60" fill="none" xmlns="http://www.w3.org/2000/svg">
<circle cx="30" cy="30" r="30" fill="url(#paint0_linear_6_432)"/>
<path fill-rule="evenodd" clip-rule="evenodd" d="M22.0224 43.2366H37.862C38.6764 43.2366 39.3427 43.903 39.3427 44.7173C39.3427 45.5317 38.6764 46.1981 37.862 46.1981H22.0224C21.2079 46.1981 20.5416 45.5317 20.5416 44.7173C20.5416 43.903 21.2079 43.2366 22.0224 43.2366ZM13 31.9813V15.4332C13 14.0885 14.0885 13 15.4332 13H45.0955C46.082 13 46.8824 13.8004 46.8824 14.7869V31.9813H13ZM44.1422 26.3976H37.9281C37.6553 26.3976 37.434 26.619 37.434 26.8917C37.434 27.1644 37.6553 27.3858 37.9281 27.3858H44.1422C44.4149 27.3858 44.6363 27.1644 44.6363 26.8917C44.6363 26.619 44.4149 26.3976 44.1422 26.3976ZM35.696 16.0625C35.696 15.7896 35.4748 15.5684 35.2019 15.5684H15.7402C15.4673 15.5684 15.246 15.7896 15.246 16.0625V29.599C15.246 29.8719 15.4673 30.0932 15.7402 30.0932H35.2019C35.4748 30.0932 35.696 29.8719 35.696 29.599V16.0625ZM34.7078 16.5566V29.1049H16.2343V16.5566H34.7078ZM29.603 24.8868L33.5676 20.9219L33.5678 20.9217C34.1341 20.3557 34.1339 19.4294 33.568 18.8636C33.002 18.2972 32.0755 18.2974 31.5097 18.8635L27.092 23.2809L17.4046 17.0855C17.2525 16.9882 17.0595 16.9817 16.9011 17.0684C16.7427 17.1551 16.6443 17.3213 16.6443 17.5018V28.1597C16.6443 28.4326 16.8655 28.6539 17.1384 28.6539H33.8037C34.0232 28.6539 34.2164 28.5091 34.278 28.2984C34.3395 28.0878 34.2548 27.8617 34.0699 27.7435L29.603 24.8868ZM32.6744 20.4175L32.0139 19.7569L32.2087 19.5621C32.3902 19.3805 32.6874 19.3804 32.869 19.5622L32.8692 19.5624C33.0509 19.7439 33.0509 20.0412 32.8692 20.2227L32.869 20.2229L32.6744 20.4175ZM28.4763 24.6159C28.472 24.6202 28.4677 24.6245 28.4634 24.6288L27.9137 25.1785L27.2529 24.5177L27.5033 24.2673C27.5076 24.2631 27.5119 24.2588 27.5161 24.2544L31.315 20.4557L31.9756 21.1163L28.4763 24.6159ZM26.3765 23.9964L26.1935 24.1794C26.1416 24.2313 26.102 24.2941 26.0773 24.3633L25.2952 26.5637C25.2303 26.7461 25.278 26.9496 25.4171 27.0843C25.5562 27.2189 25.7611 27.2599 25.9413 27.1892L28.0832 26.3484C28.1465 26.3236 28.2039 26.2859 28.252 26.2378L28.8876 25.6023L32.114 27.6656H17.6325V18.4043L26.3765 23.9964ZM19.3142 25.4898C19.3142 25.7627 19.5354 25.9839 19.8083 25.9839H24.6733C24.8928 25.9839 25.086 25.8392 25.1476 25.6285C25.2092 25.4179 25.1244 25.1918 24.9395 25.0736L20.0746 21.9622C19.9224 21.865 19.7294 21.8584 19.5711 21.9451C19.4127 22.0318 19.3142 22.198 19.3142 22.3785V25.4898ZM20.3024 24.9957V23.281L22.9836 24.9957H20.3024ZM26.7524 25.4148L27.0356 25.698L26.5895 25.8731L26.7524 25.4148ZM44.1422 23.6903H37.9281C37.6553 23.6903 37.434 23.9117 37.434 24.1844C37.434 24.4571 37.6553 24.6785 37.9281 24.6785H44.1422C44.4149 24.6785 44.6363 24.4571 44.6363 24.1844C44.6363 23.9117 44.4149 23.6903 44.1422 23.6903ZM44.1422 15.5684H37.9281C37.6553 15.5684 37.434 15.7898 37.434 16.0625C37.434 16.3352 37.6553 16.5566 37.9281 16.5566H44.1422C44.4149 16.5566 44.6363 16.3352 44.6363 16.0625C44.6363 15.7898 44.4149 15.5684 44.1422 15.5684ZM44.1422 18.2757H37.9281C37.6553 18.2757 37.434 18.4971 37.434 18.7698C37.434 19.0425 37.6553 19.2639 37.9281 19.2639H44.1422C44.4149 19.2639 44.6363 19.0425 44.6363 18.7698C44.6363 18.4971 44.4149 18.2757 44.1422 18.2757ZM44.1422 20.983H37.9281C37.6553 20.983 37.434 21.2044 37.434 21.4771C37.434 21.7498 37.6553 21.9712 37.9281 21.9712H44.1422C44.4149 21.9712 44.6363 21.7498 44.6363 21.4771C44.6363 21.2044 44.4149 20.983 44.1422 20.983ZM44.1422 29.1049H37.9281C37.6553 29.1049 37.434 29.3264 37.434 29.599C37.434 29.8717 37.6553 30.0932 37.9281 30.0932H44.1422C44.4149 30.0932 44.6363 29.8717 44.6363 29.599C44.6363 29.3264 44.4149 29.1049 44.1422 29.1049ZM46.8824 32.9696V34.8826C46.8824 36.2252 45.7938 37.3138 44.4512 37.3138H15.4332C14.0885 37.3138 13 36.2252 13 34.8826V32.9696H46.8824ZM28.6035 35.3887H31.2788C31.5515 35.3887 31.7729 35.1673 31.7729 34.8946C31.7729 34.6219 31.5515 34.4004 31.2788 34.4004H28.6035C28.3308 34.4004 28.1094 34.6219 28.1094 34.8946C28.1094 35.1673 28.3308 35.3887 28.6035 35.3887ZM24.7964 42.2484C25.1843 41.142 25.4701 39.7093 25.5372 38.302H34.2759C34.3582 39.7093 34.6696 41.142 35.0735 42.2484H24.7964Z" fill="url(#paint1_linear_6_432)"/>
<defs>
<linearGradient id="paint0_linear_6_432" x1="30" y1="0" x2="30" y2="60" gradientUnits="userSpaceOnUse">
<stop stop-color="#FFF2FF"/>
<stop offset="1" stop-color="#FBC8FC"/>
</linearGradient>
<linearGradient id="paint1_linear_6_432" x1="29.9412" y1="13" x2="29.9412" y2="46.1981" gradientUnits="userSpaceOnUse">
<stop stop-color="#9712FF" stop-opacity="0.89"/>
<stop offset="0.875647" stop-color="#F06FFF" stop-opacity="0.8"/>
</linearGradient>
</defs>
</svg>
