<svg width="60" height="60" viewBox="0 0 60 60" fill="none" xmlns="http://www.w3.org/2000/svg">
<circle cx="30" cy="30" r="30" fill="url(#paint0_linear_6_423)"/>
<path fill-rule="evenodd" clip-rule="evenodd" d="M41.6016 36.75H34.2188V33.5859L36.0469 31.2656C36.1172 31.1953 36.1875 31.0547 36.1875 30.9844V27.8203C37.1016 27.6094 37.7344 26.7656 37.7344 25.7812C37.7344 24.6562 36.8203 23.7422 35.625 23.7422C34.5 23.7422 33.5859 24.6562 33.5859 25.7812C33.5859 26.7656 34.2188 27.6094 35.1328 27.8203V30.7734L33.2344 33.0938C33.1641 33.2344 33.1641 33.3047 33.1641 33.4453V36.75H30.4922V32.0391C31.4062 31.7578 32.1094 30.9141 32.1094 30C32.1094 28.875 31.125 27.8906 30 27.8906C28.875 27.8906 27.8906 28.875 27.8906 30C27.8906 30.9844 28.5938 31.7578 29.4375 32.0391V36.75H26.8359V33.4453C26.8359 33.3047 26.7656 33.2344 26.7656 33.0938L24.8672 30.7734V27.8203C25.7812 27.6094 26.4141 26.7656 26.4141 25.7812C26.4141 24.6562 25.5 23.7422 24.375 23.7422C23.1797 23.7422 22.2656 24.6562 22.2656 25.7812C22.2656 26.7656 22.8984 27.6094 23.8125 27.8203V30.9844C23.8125 31.0547 23.8828 31.1953 23.9531 31.2656L25.7812 33.5859V36.75H18.3281C14.8125 36.75 12 33.9375 12 30.4219C12 27.3281 14.1797 24.7266 17.1328 24.1641C17.5547 21.0703 20.2266 18.6797 23.4609 18.6797C24.0938 18.6797 24.6562 18.75 25.2188 18.8906C26.4844 15.6562 29.6484 13.4062 33.2344 13.4062C37.9453 13.4062 41.8125 17.2734 41.8125 22.0547C41.8125 22.7578 41.7422 23.3906 41.6016 24.0938H41.6719C45.1875 24.0938 48 26.9062 48 30.4219C48 33.9375 45.1172 36.75 41.6016 36.75ZM35.625 24.7266C35.0625 24.7266 34.5703 25.2188 34.5703 25.7812C34.5703 26.4141 35.0625 26.8359 35.625 26.8359C36.2578 26.8359 36.6797 26.3438 36.6797 25.7812C36.6797 25.2188 36.1875 24.7266 35.625 24.7266ZM24.375 26.8359C24.9375 26.8359 25.4297 26.3438 25.4297 25.7812C25.4297 25.2188 24.9375 24.7266 24.375 24.7266C23.7422 24.7266 23.3203 25.2188 23.3203 25.7812C23.3203 26.4141 23.7422 26.8359 24.375 26.8359ZM31.0547 46.5938H29.0859C28.5234 46.5938 28.0312 46.1016 28.0312 45.4688V44.0625C27.3281 43.9219 26.625 43.6406 25.9922 43.2891L25.0078 44.2734C24.5859 44.6953 23.8828 44.6953 23.4609 44.3438L22.125 42.9375C21.9141 42.7266 21.7734 42.4453 21.7734 42.1641C21.7734 41.8828 21.9141 41.6016 22.125 41.3906L23.1094 40.4062C22.7578 39.8438 22.4062 39.1406 22.2656 38.4375H20.7891C20.3672 38.4375 19.9453 38.1562 19.8047 37.7344H25.5C26.1328 39.6328 27.8906 40.9688 30 40.9688C32.0391 40.9688 33.8672 39.6328 34.5 37.7344H40.125C39.9141 38.0156 39.6328 38.2266 39.2812 38.2266H37.875C37.6641 38.9297 37.3828 39.6328 37.0312 40.2656L38.0859 41.25C38.2266 41.4609 38.3672 41.7422 38.3672 42.0234C38.3672 42.3047 38.2266 42.5859 38.0156 42.7969L36.6797 44.2031C36.2578 44.625 35.5547 44.625 35.1328 44.2031L34.1484 43.2188C33.5156 43.5703 32.8828 43.8516 32.1797 44.0625V45.5391C32.1094 46.1016 31.6172 46.5938 31.0547 46.5938ZM33.375 37.7344C32.8125 39.0703 31.5469 39.9141 30 39.9141C28.5234 39.9141 27.2578 39 26.625 37.7344H33.375ZM36.8203 22.2656C36.5391 22.2656 36.3281 21.9844 36.3281 21.7031C36.3281 20.1562 35.0625 18.9609 33.5156 18.9609C32.3203 18.9609 31.2656 19.7344 30.9141 20.8594C30.8438 21.1406 30.5625 21.2812 30.2812 21.2109C30 21.1406 29.8594 20.8594 29.9297 20.5781C30.4219 18.9609 31.8984 17.9062 33.5859 17.9062C35.625 17.9062 37.3828 19.6641 37.3828 21.7031C37.3125 22.0547 37.1016 22.2656 36.8203 22.2656ZM30 28.875C29.3672 28.875 28.9453 29.3672 28.9453 29.9297C28.9453 30.5625 29.3672 31.0547 30 31.0547C30.6328 31.0547 31.0547 30.5625 31.0547 29.9297C31.0547 29.3672 30.6328 28.875 30 28.875Z" fill="url(#paint1_linear_6_423)"/>
<defs>
<linearGradient id="paint0_linear_6_423" x1="30" y1="0" x2="30" y2="60" gradientUnits="userSpaceOnUse">
<stop stop-color="#FFFBE7"/>
<stop offset="1" stop-color="#FFF1A0"/>
</linearGradient>
<linearGradient id="paint1_linear_6_423" x1="30.0001" y1="46.567" x2="30.0001" y2="13.433" gradientUnits="userSpaceOnUse">
<stop stop-color="#FFD500"/>
<stop offset="0.57" stop-color="#FE7114"/>
<stop offset="0.81" stop-color="#FD471C"/>
<stop offset="0.9999" stop-color="#FD1F00"/>
</linearGradient>
</defs>
</svg>
