<svg width="60" height="60" viewBox="0 0 60 60" fill="none" xmlns="http://www.w3.org/2000/svg">
<circle cx="30" cy="30" r="30" fill="url(#paint0_linear_6_424)"/>
<path fill-rule="evenodd" clip-rule="evenodd" d="M39.4423 40.2776C39.4426 40.0598 39.4931 39.845 39.59 39.6499C39.6868 39.4548 39.8273 39.2846 40.0005 39.1526L39.4135 37.5164H36.8711V36.652H39.5669C39.7371 36.652 40.0455 36.7197 40.2095 37.1739L40.8134 38.8601C40.8303 38.8595 40.8458 38.8578 40.8626 38.8578C41.1436 38.8578 41.4182 38.9411 41.6518 39.0972C41.8854 39.2533 42.0674 39.4752 42.1749 39.7347C42.2824 39.9943 42.3105 40.2799 42.2556 40.5554C42.2008 40.8309 42.0655 41.084 41.8668 41.2826C41.6681 41.4812 41.415 41.6165 41.1394 41.6712C40.8639 41.726 40.5783 41.6978 40.3188 41.5902C40.0593 41.4826 39.8375 41.3005 39.6815 41.0669C39.5255 40.8332 39.4422 40.5586 39.4423 40.2776ZM32.5489 40.9742V43.6696C32.5489 43.8395 32.6173 44.1489 33.0715 44.3122L34.7574 44.9162C34.7574 44.9327 34.7548 44.9492 34.7548 44.9654C34.7534 45.3034 34.8722 45.6309 35.09 45.8894C35.3078 46.1479 35.6103 46.3206 35.9436 46.3766C36.2769 46.4327 36.6193 46.3685 36.9097 46.1954C37.2 46.0224 37.4194 45.7518 37.5287 45.432C37.638 45.1121 37.6301 44.7638 37.5063 44.4493C37.3826 44.1348 37.151 43.8745 36.8531 43.7148C36.5552 43.5552 36.2102 43.5067 35.8798 43.5779C35.5494 43.6491 35.255 43.8354 35.0493 44.1036L33.413 43.5168V40.9742H32.5489ZM29.9241 40.9742V45.2281C29.6013 45.3311 29.326 45.5461 29.1478 45.8343C28.9696 46.1225 28.9004 46.4648 28.9525 46.7996C29.0046 47.1344 29.1747 47.4396 29.432 47.66C29.6894 47.8803 30.0171 48.0015 30.3559 48.0015C30.6947 48.0015 31.0224 47.8803 31.2797 47.66C31.5371 47.4396 31.7072 47.1344 31.7593 46.7996C31.8114 46.4648 31.7421 46.1225 31.564 45.8343C31.3858 45.5461 31.1104 45.3311 30.7876 45.2281V40.9742H29.9241ZM24.5367 43.5456C24.7546 43.5458 24.9695 43.5962 25.1647 43.6929C25.3599 43.7896 25.5302 43.93 25.6624 44.1033L27.2987 43.5165V40.9742H28.1627V43.6696C28.1627 43.8395 28.0947 44.1489 27.6405 44.3122L25.9549 44.9162C25.9549 44.9327 25.9572 44.9492 25.9572 44.9654C25.9573 45.2463 25.8742 45.521 25.7182 45.7547C25.5623 45.9884 25.3405 46.1705 25.081 46.2782C24.8215 46.3858 24.5359 46.4141 24.2603 46.3593C23.9847 46.3046 23.7316 46.1694 23.5328 45.9708C23.3341 45.7722 23.1988 45.5192 23.1439 45.2436C23.089 44.9681 23.1171 44.6825 23.2246 44.4229C23.3321 44.1633 23.5141 43.9414 23.7477 43.7853C23.9813 43.6292 24.2559 43.5459 24.5369 43.5459L24.5367 43.5456ZM21.2694 40.2776C21.2692 40.0598 21.2187 39.8449 21.1219 39.6498C21.025 39.4547 20.8845 39.2845 20.7111 39.1526L21.2981 37.5163H23.8406V36.652H21.1459C20.975 36.652 20.6662 36.7197 20.5023 37.1739L19.8983 38.8601C19.8815 38.8595 19.8659 38.8578 19.8491 38.8578C19.5682 38.8578 19.2936 38.9411 19.06 39.0972C18.8264 39.2533 18.6444 39.4752 18.5369 39.7347C18.4294 39.9943 18.4013 40.2799 18.4561 40.5554C18.511 40.8309 18.6463 41.084 18.845 41.2826C19.0437 41.4812 19.2968 41.6165 19.5723 41.6712C19.8479 41.726 20.1335 41.6978 20.393 41.5902C20.6525 41.4826 20.8743 41.3005 21.0303 41.0669C21.1863 40.8332 21.2695 40.5586 21.2694 40.2776H21.2694ZM27.3169 31.4203V37.4971H33.3941V31.4203H27.3169ZM26.8852 38.3609C26.7707 38.361 26.6608 38.3155 26.5797 38.2346C26.4986 38.1536 26.453 38.0438 26.4529 37.9292V30.9883C26.453 30.8737 26.4986 30.7638 26.5796 30.6828C26.6607 30.6018 26.7706 30.5563 26.8852 30.5562H33.8258C33.8826 30.5562 33.9388 30.5673 33.9913 30.589C34.0437 30.6107 34.0914 30.6426 34.1316 30.6827C34.1717 30.7228 34.2036 30.7705 34.2253 30.8229C34.2471 30.8753 34.2583 30.9315 34.2583 30.9883V37.9293C34.2582 37.986 34.247 38.0422 34.2253 38.0946C34.2036 38.147 34.1717 38.1947 34.1315 38.2348C34.0914 38.2748 34.0437 38.3066 33.9913 38.3283C33.9388 38.35 33.8826 38.3611 33.8258 38.361L26.8852 38.3609ZM19.2937 28.6399C19.2936 28.53 19.3262 28.4224 19.3872 28.3309C19.4483 28.2395 19.5351 28.1682 19.6367 28.126C19.7383 28.0839 19.8501 28.0729 19.958 28.0943C20.0658 28.1157 20.1649 28.1687 20.2427 28.2464C20.3205 28.3242 20.3734 28.4233 20.3948 28.5312C20.4163 28.639 20.4052 28.7509 20.3631 28.8524C20.321 28.954 20.2497 29.0409 20.1582 29.1019C20.0667 29.163 19.9592 29.1955 19.8492 29.1954C19.7019 29.1953 19.5607 29.1367 19.4566 29.0326C19.3524 28.9284 19.2939 28.7872 19.2937 28.6399ZM25.0932 23.9518C25.0932 24.0617 25.0606 24.1691 24.9995 24.2605C24.9384 24.3519 24.8516 24.4231 24.7501 24.4652C24.6485 24.5073 24.5368 24.5183 24.429 24.4969C24.3212 24.4754 24.2221 24.4225 24.1444 24.3448C24.0667 24.2671 24.0137 24.1681 23.9922 24.0603C23.9707 23.9525 23.9816 23.8408 24.0236 23.7392C24.0657 23.6376 24.1368 23.5508 24.2282 23.4897C24.3195 23.4285 24.4269 23.3959 24.5369 23.3958C24.6843 23.3959 24.8257 23.4545 24.93 23.5588C25.0343 23.663 25.093 23.8043 25.0932 23.9518ZM35.619 23.9518C35.619 23.8418 35.6516 23.7342 35.7127 23.6427C35.7738 23.5513 35.8607 23.4799 35.9623 23.4378C36.0639 23.3957 36.1758 23.3847 36.2837 23.4062C36.3916 23.4276 36.4907 23.4806 36.5685 23.5584C36.6463 23.6362 36.6992 23.7353 36.7207 23.8432C36.7421 23.9511 36.7311 24.0629 36.689 24.1645C36.6469 24.2662 36.5756 24.353 36.4841 24.4141C36.3926 24.4752 36.2851 24.5078 36.1751 24.5078C36.0277 24.5076 35.8864 24.4489 35.7821 24.3447C35.6779 24.2405 35.6192 24.0992 35.619 23.9518ZM40.3065 28.6399C40.3063 28.5299 40.3388 28.4222 40.3998 28.3306C40.4608 28.239 40.5477 28.1675 40.6493 28.1253C40.751 28.083 40.8629 28.0719 40.9708 28.0932C41.0788 28.1146 41.1781 28.1675 41.256 28.2453C41.3339 28.3231 41.3869 28.4222 41.4085 28.5301C41.43 28.6381 41.4191 28.75 41.377 28.8517C41.3349 28.9535 41.2636 29.0404 41.1721 29.1016C41.0805 29.1628 40.9729 29.1954 40.8629 29.1954C40.7155 29.1953 40.5742 29.1367 40.4699 29.0326C40.3656 28.9285 40.3069 28.7873 40.3065 28.6399ZM19.6293 19.7208C19.7294 19.7033 19.8201 19.651 19.8855 19.5732C19.951 19.4954 19.9869 19.3971 19.9869 19.2954C19.9869 15.0578 22.9521 12.8314 25.4909 12.2126C28.0298 11.5938 31.6772 12.1848 33.5975 15.8889C33.6254 15.9429 33.6644 15.9904 33.7119 16.0283C33.7595 16.0661 33.8145 16.0935 33.8734 16.1086C33.9322 16.1237 33.9936 16.1262 34.0535 16.1159C34.1134 16.1056 34.1705 16.0828 34.2209 16.0489C35.7397 15.03 37.6211 15.0293 39.1318 16.0462C40.6554 17.0728 41.3698 18.8264 40.9943 20.6223C40.9712 20.7329 40.9923 20.8481 41.0532 20.9433C41.1141 21.0384 41.2098 21.1059 41.3199 21.1313C45.2262 22.0384 46.6411 25.3511 46.3112 28.2316C45.9807 31.1159 43.8554 34.0269 39.8501 34.0269H36.8711V32.2656H39.5669C39.7371 32.2656 40.0455 32.1978 40.2095 31.7433L40.8134 30.0571C40.8303 30.0577 40.8458 30.06 40.8626 30.06C41.2009 30.0614 41.5287 29.9426 41.7874 29.7246C42.0462 29.5067 42.219 29.2039 42.2751 28.8703C42.3312 28.5367 42.267 28.194 42.0938 27.9034C41.9206 27.6129 41.6498 27.3933 41.3296 27.2839C41.0095 27.1746 40.661 27.1825 40.3462 27.3064C40.0314 27.4303 39.7709 27.662 39.6112 27.9602C39.4514 28.2584 39.4029 28.6037 39.4742 28.9344C39.5455 29.2651 39.7321 29.5596 40.0005 29.7655L39.4134 31.4015H36.8711V28.3758C36.8711 28.3191 36.86 28.2629 36.8383 28.2105C36.8166 28.1581 36.7848 28.1104 36.7447 28.0703C36.7046 28.0302 36.657 27.9984 36.6046 27.9766C36.5522 27.9549 36.4961 27.9437 36.4394 27.9437H33.413V25.401L35.0493 24.8142C35.2542 25.0803 35.547 25.265 35.8755 25.3353C36.2039 25.4056 36.5466 25.357 36.8426 25.1981C37.1385 25.0393 37.3684 24.7805 37.4913 24.4679C37.6141 24.1553 37.622 23.8092 37.5135 23.4914C37.405 23.1735 37.1871 22.9045 36.8987 22.7324C36.6103 22.5602 36.2701 22.496 35.9388 22.5513C35.6076 22.6066 35.3067 22.7778 35.0898 23.0343C34.873 23.2907 34.7542 23.6159 34.7548 23.9518C34.7548 23.9683 34.7574 23.9848 34.7574 24.0014L33.0715 24.6057C32.6173 24.7686 32.5489 25.0781 32.5489 25.248V27.9434H30.7875V23.6895C31.1103 23.5865 31.3856 23.3715 31.5638 23.0833C31.742 22.7951 31.8113 22.4527 31.7592 22.1179C31.707 21.7831 31.5369 21.478 31.2796 21.2576C31.0222 21.0372 30.6946 20.9161 30.3557 20.9161C30.0169 20.9161 29.6893 21.0372 29.4319 21.2576C29.1745 21.478 29.0045 21.7831 28.9523 22.1179C28.9002 22.4527 28.9695 22.7951 29.1477 23.0833C29.3259 23.3715 29.6012 23.5865 29.924 23.6895V27.9434H28.1629V25.248C28.1629 25.0781 28.0948 24.7686 27.6406 24.6057L25.955 24.0014C25.955 23.9848 25.9573 23.9683 25.9573 23.9518C25.9587 23.6136 25.8399 23.286 25.622 23.0274C25.4042 22.7687 25.1015 22.5959 24.768 22.5398C24.4346 22.4837 24.092 22.5479 23.8015 22.721C23.511 22.8941 23.2915 23.1648 23.1821 23.4847C23.0727 23.8047 23.0806 24.1531 23.2044 24.4678C23.3281 24.7825 23.5597 25.043 23.8577 25.2027C24.1558 25.3625 24.5009 25.4111 24.8315 25.34C25.1621 25.2688 25.4566 25.0825 25.6625 24.8142L27.2988 25.401V27.9434H24.2724C24.1579 27.9436 24.0481 27.9892 23.9672 28.0702C23.8863 28.1512 23.8408 28.261 23.8407 28.3755V31.4015H21.2983L20.7112 29.7655C20.9772 29.5606 21.1617 29.2678 21.2319 28.9395C21.3022 28.6112 21.2535 28.2686 21.0947 27.9728C20.9358 27.677 20.677 27.4472 20.3645 27.3244C20.052 27.2017 19.7061 27.1938 19.3884 27.3024C19.0706 27.4109 18.8018 27.6288 18.6297 27.9171C18.4577 28.2054 18.3936 28.5455 18.4489 28.8766C18.5042 29.2078 18.6754 29.5086 18.9318 29.7253C19.1882 29.942 19.5133 30.0607 19.8491 30.06C19.8659 30.06 19.8815 30.0577 19.8983 30.0571L20.5022 31.7433C20.6662 32.1978 20.9749 32.2656 21.1458 32.2656H23.8406V34.0269H20.8609C19.0569 34.0267 17.3185 33.3498 15.9894 32.13C14.6602 30.9102 13.8369 29.2363 13.6821 27.4389C13.5274 25.6415 14.0525 23.8514 15.1536 22.4224C16.2547 20.9934 17.8518 20.0293 19.6293 19.7208ZM30.3559 22.8933C30.4658 22.8934 30.5733 22.8609 30.6648 22.7998C30.7563 22.7388 30.8276 22.652 30.8697 22.5505C30.9119 22.4489 30.9229 22.3371 30.9015 22.2293C30.8802 22.1214 30.8273 22.0223 30.7495 21.9445C30.6718 21.8667 30.5728 21.8137 30.465 21.7922C30.3571 21.7707 30.2453 21.7817 30.1437 21.8238C30.0421 21.8658 29.9553 21.937 29.8942 22.0284C29.833 22.1198 29.8004 22.2273 29.8004 22.3373C29.8006 22.4846 29.8592 22.6258 29.9633 22.73C30.0674 22.8342 30.2086 22.8929 30.3559 22.8933ZM36.0076 40.11H24.7048V28.8075H36.0076V40.11Z" fill="url(#paint1_linear_6_424)"/>
<defs>
<linearGradient id="paint0_linear_6_424" x1="30" y1="0" x2="30" y2="60" gradientUnits="userSpaceOnUse">
<stop stop-color="#FFFBE7"/>
<stop offset="1" stop-color="#FFF1A0"/>
</linearGradient>
<linearGradient id="paint1_linear_6_424" x1="30.0062" y1="48.0001" x2="30.0063" y2="12.0001" gradientUnits="userSpaceOnUse">
<stop offset="0.120186" stop-color="#FFD400"/>
<stop offset="1" stop-color="#FE2404"/>
</linearGradient>
</defs>
</svg>
