<svg width="60" height="60" viewBox="0 0 60 60" fill="none" xmlns="http://www.w3.org/2000/svg">
<circle cx="30" cy="30" r="30" fill="url(#paint0_linear_6_426)"/>
<path fill-rule="evenodd" clip-rule="evenodd" d="M45.441 40.7469H14.5589C13.1519 40.7469 12.0077 39.602 12.0077 38.1957V35.5179H47.9923V38.1949C47.9923 39.602 46.8474 40.7469 45.441 40.7469ZM34.1516 44.9435H25.8097C25.135 44.9435 24.6332 44.6658 24.4329 44.1823C24.2368 43.7079 24.3886 43.1393 24.8307 42.6979L25.8199 41.7088H34.1759L35.165 42.6979C35.6141 43.1471 35.7653 43.6981 35.5692 44.1718C35.3653 44.6623 34.8487 44.9435 34.1516 44.9435ZM44.8018 18.4467H36.9928C36.7208 18.4467 36.5008 18.2267 36.5008 17.9547C36.5008 17.6827 36.7208 17.4627 36.9928 17.4627L44.8025 17.4628C45.0745 17.4628 45.2945 17.6827 45.2945 17.9547C45.2945 18.2268 45.0738 18.4467 44.8018 18.4467ZM23.0065 18.4467H15.1975C14.9255 18.4467 14.7055 18.2267 14.7055 17.9547C14.7055 17.6827 14.9255 17.4627 15.1975 17.4627L23.0065 17.4628C23.2785 17.4628 23.4985 17.6827 23.4985 17.9547C23.4985 18.2268 23.2785 18.4467 23.0065 18.4467ZM44.8018 32.3619H36.9928C36.7208 32.3619 36.5008 32.1419 36.5008 31.8699C36.5008 31.5979 36.7208 31.3779 36.9928 31.3779L44.8025 31.3779C45.0745 31.3779 45.2945 31.5979 45.2945 31.8699C45.2945 32.1419 45.0738 32.3619 44.8018 32.3619ZM23.0065 32.3619H15.1975C14.9255 32.3619 14.7055 32.1419 14.7055 31.8699C14.7055 31.5979 14.9255 31.3779 15.1975 31.3779L23.0065 31.3779C23.2785 31.3779 23.4985 31.5979 23.4985 31.8699C23.4985 32.1419 23.2785 32.3619 23.0065 32.3619ZM28.7786 24.8706C27.9092 24.5565 27.286 23.7229 27.286 22.7466C27.286 21.5019 28.2988 20.4891 29.5435 20.4891C30.7882 20.4891 31.801 21.5019 31.801 22.7466C31.801 23.7229 31.1778 24.5564 30.3084 24.8705C31.7778 25.1152 33.0562 26.0524 33.7332 27.3728C34.0321 26.9229 34.2589 26.4224 34.4028 25.8854C34.6319 25.0301 34.6319 24.1298 34.4035 23.2814C34.3691 23.1549 34.3874 23.02 34.4527 22.9068C34.5181 22.7937 34.6263 22.7108 34.7528 22.6777L36.8142 22.1344C37.0764 22.0656 37.3448 22.2209 37.4151 22.483C37.7827 23.8585 37.7813 25.3133 37.4123 26.6922C36.8494 28.7944 35.5013 30.5507 33.6164 31.6387C32.3618 32.364 30.9688 32.7337 29.5569 32.7337C28.8491 32.7337 28.1372 32.6409 27.435 32.4526C25.3385 31.891 23.5836 30.5451 22.4928 28.6637C22.4274 28.5505 22.4092 28.4163 22.4429 28.2898C22.4766 28.1633 22.5589 28.0557 22.672 27.9904L24.5176 26.9249C24.7524 26.7892 25.0525 26.8694 25.1888 27.1041C25.2416 27.195 25.2969 27.2839 25.3546 27.3707C26.0322 26.0514 27.3101 25.1151 28.7786 24.8706ZM29.5435 21.4738C28.8414 21.4738 28.27 22.0452 28.27 22.7473C28.27 23.4494 28.8414 24.0208 29.5435 24.0208C30.2456 24.0208 30.817 23.4494 30.817 22.7473C30.817 22.0452 30.2456 21.4738 29.5435 21.4738ZM22.1498 27.0612C21.9326 27.0612 21.7344 26.9164 21.6754 26.6978C21.3036 25.3224 21.3029 23.8626 21.6747 22.4759C22.0458 21.0921 22.7746 19.8291 23.7832 18.8227C23.975 18.6308 24.2864 18.6308 24.479 18.8234L25.9858 20.3309C26.0786 20.4237 26.1299 20.5488 26.1299 20.6802C26.1292 20.811 26.0772 20.9368 25.9837 21.0288C25.3554 21.6501 24.9182 22.4085 24.6841 23.2828C24.4522 24.1473 24.4536 25.0525 24.687 25.8994C24.7221 26.0266 24.7045 26.1616 24.6392 26.2761C24.5731 26.39 24.4649 26.4729 24.3377 26.5067L22.2756 27.0464C22.2334 27.0556 22.1913 27.0612 22.1498 27.0612ZM24.1423 19.8776C23.4296 20.6957 22.9088 21.6726 22.6256 22.7297C22.3417 23.7902 22.3044 24.8993 22.5146 25.9648L23.6264 25.6738C23.4648 24.803 23.5006 23.8978 23.734 23.0269C23.9701 22.1456 24.3799 21.3612 24.9548 20.69L24.1423 19.8776ZM34.3227 22.3066C34.1533 22.3066 33.9882 22.2187 33.8968 22.062C33.2214 20.9009 32.1376 20.0702 30.8458 19.7244C29.5463 19.3765 28.1898 19.555 27.026 20.2276C26.9128 20.293 26.7786 20.3106 26.6528 20.2768C26.527 20.2431 26.4195 20.1609 26.3541 20.0477L25.2886 18.2021C25.1529 17.9666 25.2331 17.6658 25.4685 17.5302C27.3535 16.4415 29.5498 16.152 31.6527 16.7156C33.7604 17.28 35.5182 18.6308 36.6034 20.5186C36.6687 20.6325 36.6863 20.7674 36.6511 20.8932C36.6167 21.0197 36.5331 21.1273 36.4192 21.1919L34.5652 22.2433C34.4886 22.2855 34.4049 22.3066 34.3227 22.3066ZM29.5329 18.5661C30.0558 18.5661 30.5816 18.635 31.1002 18.7742C32.4876 19.146 33.674 19.9845 34.4857 21.1568L35.488 20.5882C34.5251 19.1488 33.0892 18.1199 31.3968 17.6666C29.7073 17.2139 27.9488 17.3868 26.3941 18.1508L26.9697 19.1474C27.7787 18.7616 28.6509 18.5661 29.5329 18.5661ZM27.4487 29.1589L27.4639 29.1658L27.4876 29.1765C27.7292 29.2841 27.9809 29.3734 28.2412 29.4431C28.5168 29.5169 28.795 29.567 29.0734 29.5937C29.0881 29.5951 29.1029 29.5965 29.1176 29.5978L29.1398 29.5996C29.5924 29.6366 30.0439 29.6118 30.483 29.5286L30.4948 29.5264C30.5139 29.5228 30.5329 29.5189 30.5519 29.515C31.0749 29.4076 31.583 29.2153 32.0589 28.9406C32.402 28.7425 32.7162 28.5085 32.9977 28.2438L33.0122 28.2301L33.0308 28.2123C32.4945 26.773 31.0988 25.7905 29.5442 25.7905C27.9888 25.7905 26.593 26.773 26.0568 28.2117C26.4647 28.6046 26.9351 28.9242 27.4487 29.1589ZM23.6054 28.5891C24.5724 30.025 26.0062 31.0518 27.6902 31.5031C29.5379 31.9978 31.4685 31.7441 33.1251 30.7876C34.7816 29.831 35.9673 28.2862 36.4621 26.4385C36.7446 25.385 36.7819 24.2808 36.5753 23.2161L35.4634 23.5091C35.6215 24.3792 35.5857 25.2795 35.3545 26.1412C35.0058 27.4415 34.2505 28.5631 33.1962 29.3651C33.184 29.3744 33.1698 29.3851 33.1575 29.3943C32.6659 29.7641 32.1251 30.0529 31.5551 30.2552C31.5418 30.2599 31.5285 30.2646 31.5151 30.2693L31.5008 30.2742C30.4845 30.6262 29.3948 30.6976 28.3272 30.4754L28.3028 30.4703L28.2678 30.4628C28.1739 30.4424 28.0802 30.4197 27.9867 30.3947C27.8142 30.3485 27.6444 30.2949 27.4778 30.2341L27.469 30.2308C27.4543 30.2254 27.4396 30.22 27.425 30.2145L27.3894 30.201L27.3774 30.1964C26.2523 29.7642 25.2921 29.0096 24.6027 28.0142L23.6054 28.5891ZM32.2005 38.6244H27.7987C27.5267 38.6244 27.3067 38.4044 27.3067 38.1324C27.3067 37.8604 27.5267 37.6404 27.7987 37.6404L32.2005 37.6404C32.4725 37.6404 32.6925 37.8604 32.6925 38.1324C32.6925 38.4044 32.4725 38.6244 32.2005 38.6244ZM12.0077 34.5339L12.0077 17.6079C12.0077 16.2008 13.1526 15.0566 14.5589 15.0566L45.4411 15.0566C46.8481 15.0566 47.9923 16.2015 47.9923 17.6078L47.9923 34.5339L12.0077 34.5339Z" fill="url(#paint1_linear_6_426)"/>
<path d="M14.2006 24.4697H14.6677C14.7296 24.4697 14.789 24.4943 14.8328 24.5381C14.8766 24.5819 14.9012 24.6413 14.9012 24.7032H15.3683C15.3683 24.5174 15.2945 24.3392 15.1631 24.2078C15.0317 24.0764 14.8535 24.0026 14.6677 24.0026H14.2006C14.0148 24.0026 13.8366 24.0764 13.7052 24.2078C13.5738 24.3392 13.5 24.5174 13.5 24.7032V25.6374C13.5 25.8232 13.5738 26.0014 13.7052 26.1328C13.8366 26.2642 14.0148 26.338 14.2006 26.338H14.6677C14.8535 26.338 15.0317 26.2642 15.1631 26.1328C15.2945 26.0014 15.3683 25.8232 15.3683 25.6374H14.9012C14.9012 25.6993 14.8766 25.7587 14.8328 25.8025C14.789 25.8463 14.7296 25.8709 14.6677 25.8709H14.2006C14.1387 25.8709 14.0793 25.8463 14.0355 25.8025C13.9917 25.7587 13.9671 25.6993 13.9671 25.6374V24.7032C13.9671 24.6413 13.9917 24.5819 14.0355 24.5381C14.0793 24.4943 14.1387 24.4697 14.2006 24.4697Z" fill="white"/>
<path d="M17.4701 24.7032C17.4701 24.5174 17.3963 24.3392 17.2649 24.2078C17.1335 24.0764 16.9553 24.0026 16.7695 24.0026H15.8354C15.7734 24.0026 15.714 24.0272 15.6702 24.071C15.6264 24.1148 15.6018 24.1742 15.6018 24.2362V26.338H16.0689V25.4039H16.4659L16.5248 25.4431C16.6721 25.5413 16.7928 25.6744 16.8762 25.8305C16.9597 25.9866 17.0033 26.161 17.0031 26.338H17.4701C17.4701 25.9647 17.3344 25.6042 17.0883 25.3235C17.2029 25.2653 17.2991 25.1765 17.3665 25.0671C17.4338 24.9576 17.4697 24.8317 17.4701 24.7032ZM16.0689 24.4697H16.7695C16.8315 24.4697 16.8909 24.4943 16.9347 24.5381C16.9785 24.5819 17.0031 24.6413 17.0031 24.7032C17.0031 24.7652 16.9785 24.8246 16.9347 24.8684C16.8909 24.9122 16.8315 24.9368 16.7695 24.9368H16.0689V24.4697Z" fill="white"/>
<path d="M19.8592 24.0087C19.808 23.9966 19.7541 24.0021 19.7064 24.0245C19.6587 24.0468 19.62 24.0846 19.5965 24.1318L18.8714 25.5823L18.1474 24.1318C18.1243 24.084 18.0855 24.0455 18.0376 24.0227C17.9897 23.9999 17.9354 23.994 17.8837 24.0062C17.832 24.0184 17.786 24.0478 17.7533 24.0896C17.7206 24.1314 17.7031 24.1831 17.7037 24.2362V26.338H18.1708V25.2254L18.6612 26.2089C18.6828 26.2451 18.7134 26.275 18.75 26.2958C18.7867 26.3166 18.8281 26.3276 18.8702 26.3276C18.9123 26.3276 18.9538 26.3166 18.9904 26.2958C19.027 26.275 19.0576 26.2451 19.0792 26.2089L19.572 25.2254V26.338H20.0391V24.2362C20.0391 24.1835 20.0214 24.1324 19.9887 24.0911C19.9561 24.0499 19.9105 24.0208 19.8592 24.0087Z" fill="white"/>
<path fill-rule="evenodd" clip-rule="evenodd" d="M43.0326 23.2936C43.1374 23.3102 43.2387 23.3376 43.3352 23.3745L43.4819 23.1204L43.897 23.36L43.7501 23.6145C43.8313 23.6805 43.9055 23.7547 43.9715 23.8358L44.2259 23.6889L44.4656 24.104L44.2115 24.2507C44.2484 24.3472 44.2758 24.4485 44.2924 24.5533H44.5859V25.0326H44.2924C44.2757 25.1374 44.2483 25.2387 44.2114 25.3352L44.4656 25.4819L44.2259 25.897L43.9715 25.7501C43.9055 25.8313 43.8313 25.9055 43.7501 25.9715L43.897 26.2259L43.4819 26.4656L43.3352 26.2115C43.2387 26.2484 43.1374 26.2758 43.0326 26.2924V26.5859H42.5533V26.2924C42.4485 26.2757 42.3473 26.2483 42.2508 26.2114L42.104 26.4656L41.6889 26.2259L41.8358 25.9715C41.7547 25.9055 41.6805 25.8313 41.6145 25.7501L41.36 25.897L41.1204 25.4819L41.3745 25.3352C41.3375 25.2387 41.3102 25.1374 41.2935 25.0326H41V24.5533H41.2935C41.3102 24.4485 41.3376 24.3473 41.3745 24.2507L41.1204 24.104L41.36 23.6889L41.6145 23.8358C41.6805 23.7547 41.7547 23.6805 41.8358 23.6145L41.6889 23.36L42.104 23.1204L42.2507 23.3745C42.3473 23.3376 42.4485 23.3102 42.5533 23.2936V23H43.0326V23.2936ZM42.793 23.8358C43.3216 23.8358 43.7501 24.2644 43.7501 24.793C43.7501 25.3216 43.3216 25.7501 42.793 25.7501C42.2643 25.7501 41.8358 25.3216 41.8358 24.793C41.8358 24.2644 42.2643 23.8358 42.793 23.8358Z" fill="white"/>
<defs>
<linearGradient id="paint0_linear_6_426" x1="30" y1="0" x2="30" y2="60" gradientUnits="userSpaceOnUse">
<stop stop-color="#EDF7FF"/>
<stop offset="1" stop-color="#B3DFFF"/>
</linearGradient>
<linearGradient id="paint1_linear_6_426" x1="30.5" y1="14.5" x2="30.5" y2="43.5" gradientUnits="userSpaceOnUse">
<stop stop-color="#3253FF"/>
<stop offset="0.66" stop-color="#00B1FB"/>
</linearGradient>
</defs>
</svg>
