<svg width="60" height="60" viewBox="0 0 60 60" fill="none" xmlns="http://www.w3.org/2000/svg">
<circle cx="30" cy="30" r="30" fill="url(#paint0_linear_6_425)"/>
<path d="M15.375 42.375V22.125C15.375 21.8266 15.4935 21.5405 15.7045 21.3295C15.9155 21.1185 16.2016 21 16.5 21H43.5C43.7984 21 44.0845 21.1185 44.2955 21.3295C44.5065 21.5405 44.625 21.8266 44.625 22.125V42.375" fill="url(#paint1_linear_6_425)"/>
<path d="M17.625 23.25H42.375V40.125H17.625V23.25Z" fill="#F2F2F2"/>
<path d="M40.6875 36.75V23.25H17.625V37.875H39.5625C39.8609 37.875 40.147 37.7565 40.358 37.5455C40.569 37.3345 40.6875 37.0484 40.6875 36.75Z" fill="white"/>
<path d="M39 23.8125V20.4375H37.6894C37.49 19.5298 37.1306 18.6649 36.6279 17.8832L37.5572 16.9545L35.1705 14.5678L34.2418 15.4971C33.4601 14.9944 32.5952 14.635 31.6875 14.4356V13.125H28.3125V14.4356C27.4048 14.635 26.5399 14.9944 25.7582 15.4971L24.8295 14.5678L22.4428 16.9545L23.3721 17.8832C22.8694 18.6649 22.51 19.5298 22.3106 20.4375H21V23.8125H22.3106C22.51 24.7202 22.8694 25.5851 23.3721 26.3668L22.4428 27.2955L24.8295 29.6822L25.7582 28.7529C26.5399 29.2556 27.4048 29.615 28.3125 29.8144V31.125H31.6875V29.8144C32.5952 29.615 33.4601 29.2556 34.2418 28.7529L35.1705 29.6822L37.5572 27.2955L36.6279 26.3668C37.1306 25.5851 37.49 24.7202 37.6894 23.8125H39Z" fill="url(#paint2_linear_6_425)"/>
<path d="M30 27.75C33.1066 27.75 35.625 25.2316 35.625 22.125C35.625 19.0184 33.1066 16.5 30 16.5C26.8934 16.5 24.375 19.0184 24.375 22.125C24.375 25.2316 26.8934 27.75 30 27.75Z" fill="#F2F2F2"/>
<path d="M26.625 26.625V25.5C26.6252 24.8968 26.787 24.3046 27.0937 23.7851C27.4004 23.2657 27.8407 22.8379 28.3688 22.5463C28.579 22.7686 28.8324 22.9456 29.1134 23.0665C29.3944 23.1875 29.6972 23.2499 30.0031 23.2499C30.309 23.2499 30.6118 23.1875 30.8928 23.0665C31.1738 22.9456 31.4272 22.7686 31.6374 22.5463C32.1644 22.8387 32.6034 23.2668 32.909 23.7862C33.2145 24.3056 33.3754 24.8974 33.375 25.5V26.625C32.403 27.3541 31.221 27.7488 30.006 27.7501C28.791 27.7514 27.6082 27.3593 26.6346 26.6323L26.625 26.625Z" fill="url(#paint3_linear_6_425)"/>
<path d="M14.25 42.375H45.75C46.0484 42.375 46.3345 42.4935 46.5455 42.7045C46.7565 42.9155 46.875 43.2016 46.875 43.5V44.625C46.875 45.2217 46.6379 45.794 46.216 46.216C45.794 46.6379 45.2217 46.875 44.625 46.875H15.375C14.7783 46.875 14.206 46.6379 13.784 46.216C13.3621 45.794 13.125 45.2217 13.125 44.625V43.5C13.125 43.2016 13.2435 42.9155 13.4545 42.7045C13.6655 42.4935 13.9516 42.375 14.25 42.375Z" fill="url(#paint4_linear_6_425)"/>
<path d="M26.625 42.375V43.5C26.625 43.7984 26.7435 44.0845 26.9545 44.2955C27.1655 44.5065 27.4516 44.625 27.75 44.625H32.25C32.5484 44.625 32.8345 44.5065 33.0455 44.2955C33.2565 44.0845 33.375 43.7984 33.375 43.5V42.375" fill="white"/>
<path d="M30 23.25C31.2426 23.25 32.25 22.2426 32.25 21C32.25 19.7574 31.2426 18.75 30 18.75C28.7574 18.75 27.75 19.7574 27.75 21C27.75 22.2426 28.7574 23.25 30 23.25Z" fill="url(#paint5_linear_6_425)"/>
<path d="M23.8125 33.9373H24.9375C25.0867 33.9373 25.2298 33.9966 25.3352 34.1021C25.4407 34.2076 25.5 34.3506 25.5 34.4998H26.625C26.625 34.0523 26.4472 33.623 26.1307 33.3066C25.8143 32.9901 25.3851 32.8123 24.9375 32.8123H23.8125C23.3649 32.8123 22.9357 32.9901 22.6193 33.3066C22.3028 33.623 22.125 34.0523 22.125 34.4998V36.7498C22.125 37.1974 22.3028 37.6266 22.6193 37.9431C22.9357 38.2595 23.3649 38.4373 23.8125 38.4373H24.9375C25.3851 38.4373 25.8143 38.2595 26.1307 37.9431C26.4472 37.6266 26.625 37.1974 26.625 36.7498H25.5C25.5 36.899 25.4407 37.0421 25.3352 37.1476C25.2298 37.2531 25.0867 37.3123 24.9375 37.3123H23.8125C23.6633 37.3123 23.5202 37.2531 23.4148 37.1476C23.3093 37.0421 23.25 36.899 23.25 36.7498V34.4998C23.25 34.3506 23.3093 34.2076 23.4148 34.1021C23.5202 33.9966 23.6633 33.9373 23.8125 33.9373Z" fill="url(#paint6_linear_6_425)"/>
<path d="M31.6875 34.5C31.6875 34.0524 31.5097 33.6232 31.1932 33.3068C30.8768 32.9903 30.4476 32.8125 30 32.8125H27.75C27.6008 32.8125 27.4577 32.8718 27.3523 32.9773C27.2468 33.0827 27.1875 33.2258 27.1875 33.375V38.4375H28.3125V36.1875H29.2688L29.4105 36.282C29.7653 36.5186 30.0561 36.8391 30.257 37.2152C30.458 37.5912 30.5629 38.0111 30.5625 38.4375H31.6875C31.6875 37.5384 31.3606 36.67 30.7678 35.994C31.0437 35.8537 31.2755 35.64 31.4378 35.3764C31.6001 35.1128 31.6865 34.8095 31.6875 34.5ZM28.3125 33.9375H30C30.1492 33.9375 30.2923 33.9968 30.3977 34.1023C30.5032 34.2077 30.5625 34.3508 30.5625 34.5C30.5625 34.6492 30.5032 34.7923 30.3977 34.8977C30.2923 35.0032 30.1492 35.0625 30 35.0625H28.3125V33.9375Z" fill="url(#paint7_linear_6_425)"/>
<path d="M37.4419 32.8271C37.3184 32.7979 37.1887 32.8114 37.0738 32.8652C36.959 32.919 36.8657 33.01 36.8091 33.1236L35.0625 36.6173L33.3187 33.1236C33.263 33.0085 33.1698 32.9158 33.0543 32.8608C32.9389 32.8058 32.8081 32.7918 32.6836 32.8211C32.5592 32.8504 32.4484 32.9212 32.3696 33.0219C32.2907 33.1226 32.2486 33.2471 32.25 33.375V38.4375H33.375V35.7578L34.5562 38.1264C34.6082 38.2136 34.6819 38.2858 34.7702 38.3359C34.8584 38.3861 34.9582 38.4124 35.0597 38.4124C35.1612 38.4124 35.2609 38.3861 35.3492 38.3359C35.4374 38.2858 35.5111 38.2136 35.5631 38.1264L36.75 35.7578V38.4375H37.875V33.375C37.8751 33.2482 37.8324 33.1252 37.7538 33.0257C37.6751 32.9263 37.5652 32.8563 37.4419 32.8271Z" fill="url(#paint8_linear_6_425)"/>
<path d="M17.625 13.125L20.4375 15.9375L17.625 18.75V17.6261H13.125V14.2511H17.625V13.125Z" fill="url(#paint9_linear_6_425)"/>
<path d="M42.375 13.125L39.5625 15.9375L42.375 18.75V17.6261H46.875V14.2511H42.375V13.125Z" fill="url(#paint10_linear_6_425)"/>
<path d="M32.25 25.4635V22.9924C32.0623 22.8211 31.8558 22.6715 31.6346 22.5463C31.4244 22.7686 31.171 22.9456 30.89 23.0665C30.609 23.1875 30.3062 23.2499 30.0003 23.2499C29.6943 23.2499 29.3916 23.1875 29.1106 23.0665C28.8296 22.9456 28.5762 22.7686 28.3659 22.5463C27.8384 22.8383 27.3986 23.2662 27.0925 23.7856C26.7863 24.3051 26.6249 24.8971 26.625 25.5V26.5885H31.125C31.4234 26.5885 31.7095 26.4699 31.9205 26.2589C32.1315 26.048 32.25 25.7618 32.25 25.4635Z" fill="url(#paint11_linear_6_425)"/>
<defs>
<linearGradient id="paint0_linear_6_425" x1="30" y1="0" x2="30" y2="60" gradientUnits="userSpaceOnUse">
<stop stop-color="#EDF7FF"/>
<stop offset="1" stop-color="#B3DFFF"/>
</linearGradient>
<linearGradient id="paint1_linear_6_425" x1="30" y1="21" x2="30" y2="42.375" gradientUnits="userSpaceOnUse">
<stop stop-color="#3940FF"/>
<stop offset="1" stop-color="#06BAFF"/>
</linearGradient>
<linearGradient id="paint2_linear_6_425" x1="30" y1="13.125" x2="30" y2="31.125" gradientUnits="userSpaceOnUse">
<stop stop-color="#06BAFF"/>
<stop offset="1" stop-color="#3940FF"/>
</linearGradient>
<linearGradient id="paint3_linear_6_425" x1="30" y1="22.5463" x2="30" y2="27.7501" gradientUnits="userSpaceOnUse">
<stop stop-color="#3940FF"/>
<stop offset="1" stop-color="#06BAFF"/>
</linearGradient>
<linearGradient id="paint4_linear_6_425" x1="30" y1="42.375" x2="30" y2="46.875" gradientUnits="userSpaceOnUse">
<stop stop-color="#3940FF"/>
<stop offset="1" stop-color="#06BAFF"/>
</linearGradient>
<linearGradient id="paint5_linear_6_425" x1="30" y1="18.75" x2="30" y2="23.25" gradientUnits="userSpaceOnUse">
<stop stop-color="#3940FF"/>
<stop offset="1" stop-color="#06BAFF"/>
</linearGradient>
<linearGradient id="paint6_linear_6_425" x1="24.375" y1="32.8123" x2="24.375" y2="38.4373" gradientUnits="userSpaceOnUse">
<stop stop-color="#3940FF"/>
<stop offset="1" stop-color="#06BAFF"/>
</linearGradient>
<linearGradient id="paint7_linear_6_425" x1="29.4375" y1="32.8125" x2="29.4375" y2="38.4375" gradientUnits="userSpaceOnUse">
<stop stop-color="#3940FF"/>
<stop offset="1" stop-color="#06BAFF"/>
</linearGradient>
<linearGradient id="paint8_linear_6_425" x1="35.0625" y1="32.8062" x2="35.0625" y2="38.4375" gradientUnits="userSpaceOnUse">
<stop stop-color="#3940FF"/>
<stop offset="1" stop-color="#06BAFF"/>
</linearGradient>
<linearGradient id="paint9_linear_6_425" x1="16.7812" y1="13.125" x2="16.7812" y2="18.75" gradientUnits="userSpaceOnUse">
<stop stop-color="#3940FF"/>
<stop offset="1" stop-color="#06BAFF"/>
</linearGradient>
<linearGradient id="paint10_linear_6_425" x1="43.2188" y1="13.125" x2="43.2188" y2="18.75" gradientUnits="userSpaceOnUse">
<stop stop-color="#3940FF"/>
<stop offset="1" stop-color="#06BAFF"/>
</linearGradient>
<linearGradient id="paint11_linear_6_425" x1="29.4375" y1="22.5463" x2="29.4375" y2="26.5884" gradientUnits="userSpaceOnUse">
<stop stop-color="#3940FF"/>
<stop offset="1" stop-color="#06BAFF"/>
</linearGradient>
</defs>
</svg>
