<svg width="60" height="60" viewBox="0 0 60 60" fill="none" xmlns="http://www.w3.org/2000/svg">
<circle cx="30" cy="30" r="30" fill="url(#paint0_linear_6_427)"/>
<path fill-rule="evenodd" clip-rule="evenodd" d="M32.8922 21.0954C32.8922 22.7443 31.5523 24.0842 29.9034 24.0842C28.2546 24.0842 26.9146 22.7443 26.9146 21.0955C27.0533 17.1406 32.753 17.1396 32.8922 21.0954ZM21.8088 19.2175C21.5224 20.4427 21.5224 21.7482 21.8088 22.9733C21.8586 23.1826 22.0329 23.332 22.2421 23.3569C23.7329 23.356 24.8295 25.0558 24.1998 26.4055C24.0643 26.6554 23.9948 26.9499 24.2297 27.1676C25.1371 28.0224 26.2725 28.6747 27.4663 29.0401C27.6689 29.1122 27.889 29.0181 28.0233 28.8626C28.8196 27.5408 30.9323 27.4953 31.7565 28.8264C31.8469 28.973 32.0131 29.0638 32.1849 29.0655C33.4436 28.7672 34.6261 28.0384 35.5772 27.1676C35.7166 27.0331 35.7665 26.8338 35.7116 26.6495C35.3547 25.9895 35.3141 25.1766 35.7067 24.5325C36.0198 23.8974 36.6318 23.4489 37.3555 23.3768C37.6264 23.3765 37.9376 23.2775 37.9981 22.9734C38.2845 21.7482 38.2844 20.4427 37.9981 19.2175C37.9337 18.9148 37.6306 18.8125 37.3555 18.8141C36.693 18.7443 36.1052 18.3657 35.7864 17.7979C35.3233 17.1256 35.3244 16.2524 35.7117 15.5414C35.7665 15.3571 35.7166 15.1578 35.5772 15.0233C35.1189 14.5949 34.6058 14.2163 34.0579 13.8975C33.5099 13.5837 32.9321 13.3297 32.3343 13.1504C32.1102 13.0756 31.8511 13.1852 31.7415 13.3845C31.0262 14.5937 28.9518 14.6775 28.15 13.499C28.0298 13.3124 27.8778 13.1138 27.627 13.1255C26.3597 13.4186 25.1813 14.1533 24.2297 15.0233C23.9988 15.2369 24.0623 15.5391 24.1998 15.7854C24.4738 16.3932 24.4339 17.0955 24.1002 17.6634C23.7552 18.366 23.0361 18.8141 22.2421 18.8339C22.0329 18.8589 21.8586 19.0083 21.8088 19.2175ZM33.8885 21.0954C33.6687 26.3819 26.1374 26.3804 25.9184 21.0954C25.9184 18.8987 27.7067 17.1105 29.9034 17.1105C32.1002 17.1105 33.8885 18.8987 33.8885 21.0954ZM26.7104 38.9617C26.7201 41.5153 24.6543 43.597 22.1006 43.6067C19.5469 43.6164 17.4697 41.5549 17.4555 38.9969C17.4458 36.4432 19.5117 34.3616 22.0654 34.3519C24.619 34.3421 26.7007 36.408 26.7104 38.9617ZM45.4721 43.782C45.7401 43.6268 45.7077 43.2263 45.4167 43.1129C45.6616 42.6629 45.8623 42.1866 46.0189 41.6929C47.3721 37.4477 45.1489 32.9079 41.0086 31.343C40.8146 31.2733 40.5992 31.3666 40.5295 31.5606C40.4598 31.7546 40.5531 31.97 40.7471 32.0397C42.2021 32.5889 43.4431 33.566 44.3153 34.8264C45.9356 37.1626 46.1147 40.244 44.7637 42.7544C44.534 42.5527 44.1691 42.7082 44.1527 43.0165L44.1076 43.884C44.0736 44.2188 44.4177 44.3936 44.6637 44.2517L45.4721 43.782ZM19.7621 46.9442C19.6399 47.2265 19.8964 47.5337 20.1999 47.4489L21.1016 47.2033C21.3875 47.1274 21.4653 46.7572 21.2489 46.5687L20.5818 45.9769C20.3476 45.7708 19.9828 45.9263 19.9619 46.2302C19.5167 46.0954 19.0802 45.9253 18.6611 45.7112C15.0437 43.8757 13.5125 39.5314 15.1408 35.8488C15.2238 35.6591 15.1437 35.4393 14.954 35.3564C14.7644 35.2734 14.5445 35.3535 14.4616 35.5432C13.7719 37.1044 13.5847 38.8311 13.8948 40.481C14.4789 43.5609 16.7427 46.0619 19.7621 46.9442ZM16.2965 32.9252C16.1063 32.7014 15.7368 32.7821 15.6586 33.073L15.4285 33.9236C15.3504 34.2145 15.6287 34.4644 15.9057 34.3709L16.7544 34.0903C17.0534 33.9923 17.1004 33.6002 16.8488 33.4295C20.2048 30.2246 25.6269 30.7631 28.3095 34.5482C28.429 34.7107 28.6581 34.7539 28.8294 34.6343C28.9918 34.5148 29.035 34.2857 28.9154 34.1144C25.9628 29.9385 19.977 29.3669 16.2965 32.9252ZM22.3905 46.9122C22.4089 47.1147 22.59 47.2681 22.7925 47.2497C27.0224 46.8946 30.3158 43.4169 30.4582 39.1896L30.4581 39.1632C30.4589 37.0762 31.3059 35.1797 32.6788 33.8051C34.0034 32.4792 35.8186 31.6313 37.8349 31.5708C37.7744 31.8705 38.0968 32.1114 38.3692 31.9695L39.1558 31.5658C39.4327 31.4283 39.4312 31.0496 39.1797 30.9053L38.4164 30.4723C38.156 30.3192 37.8354 30.5273 37.8585 30.8222C35.6264 30.8792 33.6134 31.8114 32.144 33.2832C30.6352 34.7948 29.7053 36.8721 29.7052 39.1616C29.6822 40.0775 29.4527 41.0691 29.0817 41.9378C27.9688 44.5178 25.5186 46.2795 22.728 46.5103C22.5256 46.5286 22.3765 46.7053 22.3905 46.9122ZM43.5393 44.9605C43.4066 44.8025 43.1732 44.7902 43.0152 44.9229C39.4868 47.9567 34.068 47.132 31.596 43.1523C31.8818 43.0499 31.9287 42.6579 31.6727 42.4916L30.9268 42.0057C30.6796 41.8481 30.3589 42.021 30.3512 42.3117L30.3324 43.1615C30.3291 43.4653 30.6689 43.6446 30.9192 43.4719C33.6042 47.8998 39.6046 48.8369 43.5016 45.4846C43.6596 45.3519 43.672 45.1185 43.5393 44.9605ZM34.4266 36.0836L35.0495 35.456L35.54 35.9429C35.677 36.0788 35.8884 36.0869 36.0377 35.9718C36.2661 35.8212 36.4945 35.6971 36.7363 35.5949C36.9825 35.4883 37.2463 35.408 37.5147 35.3586C37.6951 35.3271 37.8178 35.1681 37.8171 34.992L37.8145 34.2963L38.7039 34.2929L38.7065 34.9886C38.7028 35.1779 38.8487 35.3315 39.0337 35.3572C39.5183 35.4258 40.1005 35.6878 40.511 35.9636C40.6611 36.0687 40.8636 36.0415 40.9864 35.9178L41.4732 35.4272L42.1052 36.0544L41.6184 36.545C41.4868 36.6776 41.4788 36.8801 41.5762 37.0207C41.8861 37.4686 42.0994 37.9785 42.2027 38.5109C42.2342 38.6913 42.3931 38.8139 42.5692 38.8133L43.2649 38.8106L43.2683 39.7L42.5726 39.7027C42.3833 39.699 42.2297 39.8449 42.204 40.0299C42.1266 40.5145 41.8735 41.0966 41.5976 41.5072C41.4925 41.6573 41.5197 41.8597 41.6435 41.9825L42.1341 42.4694L41.5068 43.1014L41.0163 42.6145C40.8793 42.4786 40.6679 42.4706 40.5186 42.5856C40.2902 42.7362 40.0618 42.8603 39.82 42.9625C39.5694 43.0647 39.3055 43.145 39.0416 43.1988C38.8612 43.2303 38.7385 43.3893 38.7392 43.5654L38.7418 44.2611L37.8524 44.2645L37.8498 43.5688C37.8491 43.3839 37.7076 43.2259 37.5226 43.2002C37.038 43.1316 36.4514 42.8741 36.0453 42.5938C35.8952 42.4887 35.6927 42.5159 35.5699 42.6396L35.0831 43.1302L34.451 42.503L34.9379 42.0124C35.0739 41.8754 35.0863 41.6596 34.9668 41.5148C34.8207 41.2908 34.6965 41.0623 34.5943 40.8205C34.4877 40.5744 34.4075 40.3105 34.358 40.0421C34.3265 39.8617 34.1675 39.739 33.9914 39.7397L33.2958 39.7424L33.2924 38.853L33.988 38.8503C34.1774 38.854 34.3309 38.7081 34.3567 38.5231C34.4341 38.0385 34.6872 37.4563 34.963 37.0458C35.0725 36.8913 35.0453 36.6801 34.9039 36.5573L34.4266 36.0836ZM36.1339 39.2869C36.1294 38.0981 37.0856 37.1346 38.2744 37.1301C39.4632 37.1256 40.4311 38.0861 40.4312 39.2705C40.4357 40.4593 39.4795 41.4228 38.2907 41.4273C37.1019 41.4318 36.1385 40.4756 36.1339 39.2869ZM40.3221 37.2236C39.1863 36.0963 37.3547 36.1033 36.2274 37.2391C35.1002 38.375 35.1072 40.2066 36.243 41.3338C37.3788 42.4611 39.2104 42.4541 40.3377 41.3182C41.4649 40.1824 41.4579 38.3508 40.3221 37.2236ZM19.683 38.8915C19.476 38.8791 19.305 39.0427 19.2969 39.2453L19.2042 41.4955C19.1962 41.7157 19.373 41.8911 19.5931 41.8815L21.8426 41.7717C22.0451 41.7621 22.203 41.5854 22.1934 41.3829C22.1838 41.1804 22.0071 41.0225 21.8046 41.0321L19.9601 41.1228L20.0367 39.2777C20.0492 39.0707 19.8856 38.8996 19.683 38.8915ZM22.8485 41.147C23.042 41.0758 23.1469 40.8641 23.0757 40.6706L21.7938 37.0387C21.7226 36.8452 21.5109 36.7404 21.3174 36.8115C21.124 36.8827 21.0191 37.0945 21.0903 37.2879L22.3721 40.9199C22.4433 41.1133 22.6551 41.2182 22.8485 41.147ZM21.977 36.5801C21.9866 36.7826 22.1633 36.9404 22.3658 36.9308L24.2059 36.8446L24.1336 38.6853C24.1256 38.8879 24.2848 39.0634 24.4873 39.0714C24.6899 39.0794 24.8654 38.9203 24.8734 38.7177L24.9662 36.4674C24.9785 36.2516 24.7973 36.0718 24.5772 36.0815L22.3277 36.1913C22.1252 36.2009 21.9674 36.3776 21.977 36.5801Z" fill="url(#paint1_linear_6_427)"/>
<defs>
<linearGradient id="paint0_linear_6_427" x1="30" y1="0" x2="30" y2="60" gradientUnits="userSpaceOnUse">
<stop stop-color="#FFF2FF"/>
<stop offset="1" stop-color="#FBC8FC"/>
</linearGradient>
<linearGradient id="paint1_linear_6_427" x1="30" y1="11.6667" x2="30" y2="47.7778" gradientUnits="userSpaceOnUse">
<stop stop-color="#A32EFF"/>
<stop offset="1" stop-color="#F38CFF"/>
</linearGradient>
</defs>
</svg>
