<svg width="60" height="60" viewBox="0 0 60 60" fill="none" xmlns="http://www.w3.org/2000/svg">
<circle cx="30" cy="30" r="30" fill="url(#paint0_linear_6_428)"/>
<path fill-rule="evenodd" clip-rule="evenodd" d="M16.686 24.2703C16.1407 24.3875 15.761 24.8586 15.761 25.4149V28.811C14.9063 29.3297 14.1211 29.9899 13.4383 30.7891C11.7602 32.7532 10.95 35.2516 11.1508 37.8258C11.3547 40.4 12.5485 42.7407 14.5102 44.4172C16.1375 45.8047 18.1188 46.6008 20.2469 46.718C20.4258 46.7281 20.6008 46.7328 20.7735 46.7328C22.2633 46.7328 23.7438 46.3852 25.0742 45.7313L24.9149 46.2727C24.8446 46.5211 24.9883 46.7813 25.2367 46.8532C25.2782 46.8656 25.3227 46.8719 25.3672 46.8719C25.568 46.8711 25.7563 46.7383 25.8172 46.5328L26.318 44.8008C26.3883 44.5524 26.2446 44.2922 25.9961 44.2203L24.2633 43.7203C24.0141 43.6485 23.7563 43.7922 23.6828 44.0406C23.6125 44.2899 23.7563 44.5492 24.0047 44.6211L24.761 44.8399C21.6563 46.4219 17.8149 46.0047 15.1196 43.7047C13.3485 42.1907 12.2703 40.0766 12.0852 37.7524C11.9032 35.4274 12.6367 33.1711 14.1492 31.3985C17.2758 27.7383 22.7953 27.3032 26.4547 30.4282C28.2125 31.9274 29.3133 34.0664 29.4828 36.2969C29.668 38.775 30.8899 41.1477 32.836 42.8078C34.7985 44.4844 37.2961 45.2961 39.8711 45.0938C42.4461 44.8907 44.7844 43.6977 46.4625 41.7344C48.1375 39.7703 48.9508 37.2719 48.7469 34.6977C48.5461 32.1235 47.3524 29.7828 45.3875 28.1063C44.9922 27.768 44.5742 27.4672 44.1399 27.2024V25.4149C44.1399 24.8586 43.7602 24.3875 43.2149 24.2703L40.7328 23.7375C40.6469 23.7188 40.5922 23.6696 40.5641 23.5867C40.4266 23.1953 40.2641 22.8063 40.0821 22.4305C40.0438 22.3508 40.05 22.2766 40.0977 22.2024L41.4758 20.0696C41.7789 19.6024 41.7117 19.0008 41.3196 18.6071L38.6492 15.9352C38.2539 15.5406 37.6539 15.4774 37.1852 15.7797L35.0508 17.1578C34.9774 17.2055 34.9039 17.2102 34.8242 17.1719C34.4477 16.9906 34.0586 16.8297 33.6696 16.6922C33.5867 16.6633 33.5352 16.6071 33.5164 16.5211L32.9836 14.0391C32.8688 13.4946 32.3969 13.1149 31.8414 13.1149H28.061C27.5055 13.1149 27.0336 13.4946 26.9157 14.0391L26.3828 16.5211C26.3672 16.6071 26.3157 16.6633 26.2328 16.6922C25.8407 16.8297 25.4508 16.9914 25.0782 17.1719C24.9985 17.2102 24.9219 17.2055 24.8485 17.1578L22.7172 15.7797C22.2485 15.4774 21.6485 15.5406 21.2532 15.9352L18.5828 18.6071C18.1875 19.0008 18.1235 19.6024 18.4266 20.0696L19.8047 22.2024C19.8524 22.2766 19.8586 22.3508 19.8203 22.4305C19.6383 22.8063 19.4758 23.1953 19.3383 23.5867C19.3094 23.6696 19.2524 23.7188 19.1696 23.7375L16.686 24.2703ZM24.1008 27.986C24.075 27.7602 24.0625 27.5321 24.0625 27.3047C24.0625 24.0578 26.7039 21.4164 29.9492 21.4164C32.8844 21.4164 35.3219 23.5281 35.7657 26.3852C35.3922 26.5227 35.0258 26.6844 34.668 26.8703L34.8367 26.2844C34.9071 26.036 34.7633 25.7758 34.5149 25.7039C34.2657 25.6321 34.0078 25.7758 33.9344 26.0242L33.4367 27.7563C33.3633 28.0047 33.5071 28.2649 33.7555 28.3367L35.4883 28.8367C35.5297 28.8492 35.5742 28.8547 35.6157 28.8547C35.8196 28.8547 36.0078 28.7211 36.0688 28.5164C36.1391 28.2672 35.9953 28.0078 35.7469 27.936L35.0453 27.7321C38.1688 26.0844 42.0391 26.4782 44.7828 28.8188C48.4422 31.9446 48.8766 37.4649 45.7492 41.125C44.2367 42.8985 42.1219 43.9758 39.7992 44.1586C37.4735 44.3422 35.218 43.6094 33.4438 42.0953C31.6891 40.5961 30.5852 38.4571 30.4196 36.2266C30.2344 33.7485 29.0125 31.3758 27.0664 29.7157C26.1617 28.9446 25.1571 28.3696 24.1008 27.986ZM36.6688 26.1039C36.4102 24.6344 35.6735 23.2891 34.5602 22.2696C33.3 21.1149 31.6633 20.4789 29.95 20.4789C26.1883 20.4789 23.1258 23.5406 23.1258 27.3047C23.1258 27.4336 23.1321 27.5625 23.1383 27.6914C22.8578 27.6219 22.5766 27.5649 22.293 27.5211C22.293 27.4847 22.2922 27.4485 22.2914 27.4124L22.2914 27.4123V27.4123C22.2906 27.3764 22.2899 27.3405 22.2899 27.3047C22.2899 23.0805 25.7258 19.643 29.95 19.643C33.6735 19.643 36.8352 22.3149 37.4891 25.9289C37.2141 25.975 36.9399 26.0336 36.6688 26.1039ZM27.1326 36.4458V37.2981C27.1318 37.5765 27.0204 37.8431 26.8229 38.0394C26.6255 38.2357 26.3582 38.3455 26.0798 38.3447H25.6913C25.4773 39.0099 25.1224 39.6212 24.6509 40.137C25.4549 41.2928 24.7452 41.8119 23.7297 42.3366C23.4882 42.4738 23.2024 42.5106 22.934 42.4391C22.6656 42.3676 22.436 42.1935 22.2946 41.9544L22.0941 41.6097C21.4129 41.7601 20.7072 41.7601 20.026 41.6097L19.8318 41.9481C19.7631 42.0671 19.6717 42.1714 19.5627 42.255C19.4537 42.3387 19.3293 42.4 19.1966 42.4355C19.0639 42.471 18.9255 42.48 18.7893 42.462C18.6531 42.4439 18.5218 42.3992 18.4029 42.3304L17.6635 41.9042C17.5199 41.8113 17.3989 41.6876 17.3094 41.5419C17.2199 41.3962 17.1641 41.2324 17.146 41.0624C17.128 40.8923 17.1482 40.7204 17.2052 40.5593C17.2622 40.3981 17.3545 40.2516 17.4754 40.1307C17.0058 39.6146 16.6531 39.0033 16.4414 38.3384H16.0528C15.7744 38.3392 15.5071 38.2294 15.3097 38.0332C15.1122 37.8369 15.0009 37.5702 15 37.2918V36.4395C14.9998 36.3012 15.0269 36.1642 15.0797 36.0364C15.1325 35.9085 15.2101 35.7924 15.3079 35.6946C15.4057 35.5968 15.5218 35.5192 15.6497 35.4664C15.7775 35.4136 15.9145 35.3865 16.0528 35.3867H16.4414C16.6569 34.724 17.0116 34.115 17.4817 33.6006C17.3597 33.4803 17.2664 33.334 17.2087 33.1727C17.151 33.0113 17.1304 32.839 17.1485 32.6686C17.1665 32.4982 17.2228 32.3341 17.313 32.1884C17.4032 32.0427 17.5251 31.9192 17.6696 31.8272C17.7621 31.779 17.8625 31.7172 17.9684 31.652C18.3487 31.418 18.7998 31.1404 19.2051 31.2945C19.6192 31.381 19.852 31.7805 20.0385 32.1217C20.7204 31.9776 21.4248 31.9776 22.1066 32.1217L22.3009 31.7896C22.4398 31.5497 22.6679 31.3743 22.9354 31.3015C23.2029 31.2288 23.4884 31.2645 23.7297 31.401L24.4692 31.8271C24.6127 31.92 24.7336 32.0439 24.823 32.1895C24.9125 32.3352 24.9683 32.499 24.9863 32.669C25.0043 32.839 24.9841 33.0109 24.9272 33.1721C24.8703 33.3333 24.778 33.4797 24.6572 33.6006C25.1243 34.1186 25.4766 34.7294 25.6912 35.393H26.0798C26.2181 35.3928 26.3551 35.4198 26.483 35.4727C26.6108 35.5255 26.727 35.603 26.8248 35.7008C26.9226 35.7987 27.0001 35.9148 27.053 36.0426C27.1058 36.1705 27.1329 36.3075 27.1326 36.4458ZM21.0664 34.1271C20.3431 34.1329 19.6514 34.4244 19.142 34.9379C18.6326 35.4515 18.3468 36.1455 18.3468 36.8688C18.3468 37.5921 18.6326 38.2861 19.142 38.7997C19.6513 39.3132 20.343 39.6047 21.0663 39.6106C21.7895 39.6046 22.4811 39.3131 22.9904 38.7996C23.4997 38.2861 23.7855 37.5921 23.7855 36.8689C23.7855 36.1456 23.4998 35.4517 22.9905 34.9381C22.4812 34.4246 21.7896 34.1331 21.0664 34.1271ZM19.5748 36.8657C19.5794 37.2582 19.7385 37.6332 20.0177 37.9092C20.2969 38.1852 20.6737 38.34 21.0663 38.34C21.4589 38.34 21.8357 38.1852 22.1149 37.9092C22.3941 37.6332 22.5533 37.2583 22.5578 36.8657C22.5533 36.4731 22.3942 36.0981 22.1149 35.8221C21.8357 35.5461 21.459 35.3913 21.0663 35.3913C20.6737 35.3913 20.297 35.5461 20.0177 35.8221C19.7385 36.0981 19.5794 36.4731 19.5748 36.8657ZM35.9187 39.1566C35.7546 39.1582 35.5964 39.0953 35.4781 38.9815L33.3086 36.812C33.2504 36.7538 33.2042 36.6847 33.1727 36.6087C33.1412 36.5327 33.125 36.4512 33.125 36.3689C33.125 36.2866 33.1412 36.2051 33.1727 36.1291C33.2042 36.0531 33.2504 35.984 33.3086 35.9258L35.4781 33.7563C35.5956 33.6388 35.755 33.5728 35.9212 33.5728C36.0874 33.5728 36.2468 33.6388 36.3643 33.7563C36.4818 33.8738 36.5478 34.0332 36.5478 34.1994C36.5478 34.3656 36.4818 34.525 36.3643 34.6425L34.6379 36.3689L36.3643 38.0953C36.4781 38.2136 36.5409 38.3718 36.5393 38.5359C36.5378 38.7 36.4719 38.857 36.3558 38.973C36.2398 39.0891 36.0828 39.155 35.9187 39.1566ZM42.6227 39.1174C42.5466 39.0859 42.4776 39.0397 42.4194 38.9815C42.3612 38.9234 42.315 38.8543 42.2835 38.7783C42.252 38.7022 42.2358 38.6207 42.2358 38.5385C42.2358 38.4562 42.252 38.3747 42.2835 38.2986C42.315 38.2226 42.3612 38.1535 42.4194 38.0954L44.1458 36.3689L42.4194 34.6425C42.3612 34.5843 42.315 34.5152 42.2835 34.4392C42.252 34.3632 42.2358 34.2817 42.2358 34.1994C42.2358 34.1171 42.252 34.0356 42.2835 33.9596C42.315 33.8836 42.3612 33.8145 42.4194 33.7563C42.4776 33.6981 42.5466 33.652 42.6227 33.6205C42.6987 33.589 42.7802 33.5728 42.8625 33.5728C42.9448 33.5728 43.0262 33.589 43.1023 33.6205C43.1783 33.652 43.2474 33.6981 43.3055 33.7563L45.4751 35.9258C45.5333 35.984 45.5795 36.0531 45.611 36.1291C45.6425 36.2051 45.6587 36.2866 45.6587 36.3689C45.6587 36.4512 45.6425 36.5327 45.611 36.6087C45.5795 36.6847 45.5333 36.7538 45.4751 36.812L43.3055 38.9815C43.2474 39.0397 43.1783 39.0859 43.1023 39.1174C43.0262 39.1489 42.9448 39.1651 42.8625 39.1651C42.7802 39.1651 42.6987 39.1489 42.6227 39.1174ZM40.8129 33.2667L39.1862 39.7747C39.1434 39.9331 39.0402 40.0684 38.8987 40.1516C38.7572 40.2347 38.5888 40.259 38.4296 40.2192C38.2704 40.1795 38.1331 40.0788 38.0473 39.9389C37.9615 39.799 37.934 39.6311 37.9708 39.4711L39.5975 32.9632C39.6403 32.8048 39.7435 32.6695 39.885 32.5863C40.0264 32.5032 40.1949 32.4789 40.3541 32.5187C40.5133 32.5584 40.6505 32.6591 40.7363 32.7989C40.8221 32.9388 40.8496 33.1068 40.8129 33.2667Z" fill="url(#paint1_linear_6_428)"/>
<defs>
<linearGradient id="paint0_linear_6_428" x1="30" y1="0" x2="30" y2="60" gradientUnits="userSpaceOnUse">
<stop stop-color="#FFF2FF"/>
<stop offset="1" stop-color="#FBC8FC"/>
</linearGradient>
<linearGradient id="paint1_linear_6_428" x1="30" y1="11.6667" x2="30" y2="48.3333" gradientUnits="userSpaceOnUse">
<stop stop-color="#A32EFF"/>
<stop offset="1" stop-color="#F38CFF"/>
</linearGradient>
</defs>
</svg>
