<svg width="60" height="60" viewBox="0 0 60 60" fill="none" xmlns="http://www.w3.org/2000/svg">
<circle cx="30" cy="30" r="30" fill="url(#paint0_linear_6_429)"/>
<path d="M34.5487 46.1198L31.0567 43.5835C31.8368 43.0089 33.4715 41.8203 34.2489 41.2596L36.7602 43.09C37.7535 43.8209 39.0092 43.9208 40.1086 43.3587C44.1411 41.0796 40.5357 35.2985 36.7228 37.9174C34.8207 39.2969 31.8655 41.4442 29.9947 42.8089C28.8778 43.5434 25.0445 46.6438 23.8101 47.0006C19.421 48.7913 14.2582 45.2386 14.377 40.4851C14.3021 34.8646 20.9371 31.5027 25.4405 34.8501L28.9326 37.3927L25.7404 39.7103L23.2291 37.8862C22.2233 37.1615 20.9676 37.0678 19.8807 37.6238C15.8756 39.8794 19.4001 45.6387 23.2291 43.09C26.6801 40.5772 31.0805 37.3781 34.5487 34.8501C36.6414 33.3242 39.4945 33.088 41.8079 34.2816C50.4801 39.165 42.7803 51.6351 34.5487 46.1198ZM29.994 26.2503C32.0628 26.2503 33.744 24.5691 33.744 22.5004C33.5693 17.537 26.418 17.5383 26.244 22.5005C26.244 24.5691 27.9253 26.2503 29.994 26.2503ZM19.8378 24.8566C19.4785 23.3194 19.4785 21.6814 19.8378 20.1442C19.9003 19.8817 20.119 19.6942 20.3815 19.6629C21.3777 19.638 22.2799 19.0758 22.7128 18.1942C23.1315 17.4817 23.1815 16.6005 22.8378 15.838C22.6652 15.529 22.5856 15.1497 22.8753 14.8818C24.0692 13.7902 25.5478 12.8684 27.1378 12.5006C27.4526 12.4859 27.6432 12.7351 27.794 12.9693C28.8 14.4479 31.4028 14.3428 32.3003 12.8256C32.4378 12.5756 32.7628 12.4381 33.044 12.5318C33.794 12.7568 34.519 13.0756 35.2065 13.4693C35.894 13.8693 36.5378 14.3443 37.1128 14.8818C37.2878 15.0505 37.3503 15.3005 37.2816 15.5318C36.7957 16.4239 36.7942 17.5195 37.3753 18.363C37.7753 19.0754 38.5128 19.5505 39.344 19.638C39.6892 19.636 40.0695 19.7643 40.1503 20.1442C40.5096 21.6814 40.5096 23.3194 40.1502 24.8566C40.0744 25.2382 39.6839 25.3624 39.344 25.3628C38.4361 25.4533 37.6682 26.0159 37.2753 26.8128C36.7827 27.6209 36.8337 28.641 37.2815 29.469C37.3503 29.7003 37.2878 29.9503 37.1128 30.1191C35.9195 31.2117 34.4358 32.1261 32.8565 32.5003C32.641 32.4982 32.4324 32.3842 32.319 32.2003C31.285 30.5302 28.6342 30.5873 27.635 32.2457C27.4666 32.4409 27.1904 32.559 26.9362 32.4684C25.4383 32.0099 24.0138 31.1915 22.8753 30.119C22.5806 29.8459 22.6678 29.4764 22.8378 29.1628C23.6279 27.4694 22.2519 25.3367 20.3815 25.3379C20.119 25.3066 19.9003 25.1191 19.8378 24.8566ZM24.994 22.5004C25.2688 29.1314 34.7183 29.1333 34.994 22.5004C34.994 19.7442 32.7503 17.5005 29.994 17.5005C27.2378 17.5005 24.994 19.7442 24.994 22.5004Z" fill="url(#paint1_linear_6_429)"/>
<defs>
<linearGradient id="paint0_linear_6_429" x1="30" y1="0" x2="30" y2="60" gradientUnits="userSpaceOnUse">
<stop stop-color="#FFF2FF"/>
<stop offset="1" stop-color="#FBC8FC"/>
</linearGradient>
<linearGradient id="paint1_linear_6_429" x1="30" y1="11.1111" x2="30" y2="47.7778" gradientUnits="userSpaceOnUse">
<stop stop-color="#A733FF"/>
<stop offset="1" stop-color="#F38CFF"/>
</linearGradient>
</defs>
</svg>
