<svg width="60" height="60" viewBox="0 0 60 60" fill="none" xmlns="http://www.w3.org/2000/svg">
<circle cx="30" cy="30" r="30" fill="url(#paint0_linear_6_431)"/>
<path d="M45.0469 17.0625V28.4531H31.2656V23.8181C31.2656 22.1925 29.9438 20.865 28.3125 20.865H21.7031V17.0625C21.7031 15.8981 22.6481 14.9531 23.8125 14.9531H42.9375C44.1019 14.9531 45.0469 15.8981 45.0469 17.0625ZM31.2656 29.2969V32.6719H42.9375C44.1019 32.6719 45.0469 31.7269 45.0469 30.5625V29.2969H31.2656ZM39 35.2031H38.1788L37.6163 33.5156H31.2656V36.0469H39C39.2306 36.0469 39.4219 35.8556 39.4219 35.625C39.4219 35.3944 39.2306 35.2031 39 35.2031ZM30.4219 40.8281V23.8181C30.4219 22.6538 29.4769 21.7088 28.3125 21.7088H17.0625C15.8981 21.7088 14.9531 22.6538 14.9531 23.8181V40.8281H30.4219ZM14.9531 41.6719V42.9375C14.9531 44.1019 15.8981 45.0469 17.0625 45.0469H28.3125C29.4769 45.0469 30.4219 44.1019 30.4219 42.9375V41.6719H14.9531ZM43.3594 41.25C43.3594 42.105 42.6675 42.7969 41.8125 42.7969C41.1094 42.7969 40.5187 42.3187 40.3331 41.6719H31.2656V40.8281H40.3331C40.4794 40.3162 40.8787 39.9169 41.3906 39.7706V33.5156H42.2344V39.7706C42.8812 39.9562 43.3594 40.5469 43.3594 41.25ZM19.6669 17.7656H20.8594V18.6094H19.6669C19.5206 19.1213 19.1213 19.5206 18.6094 19.6669V20.865H17.7656V19.6669C17.1188 19.4813 16.6406 18.8906 16.6406 18.1875C16.6406 17.3325 17.3325 16.6406 18.1875 16.6406C18.8906 16.6406 19.4813 17.1188 19.6669 17.7656Z" fill="url(#paint1_linear_6_431)"/>
<defs>
<linearGradient id="paint0_linear_6_431" x1="30" y1="0" x2="30" y2="60" gradientUnits="userSpaceOnUse">
<stop stop-color="#FFFBE7"/>
<stop offset="1" stop-color="#FFF1A0"/>
</linearGradient>
<linearGradient id="paint1_linear_6_431" x1="30" y1="16" x2="30" y2="43.5" gradientUnits="userSpaceOnUse">
<stop stop-color="#FF2A05"/>
<stop offset="1" stop-color="#FFD502"/>
</linearGradient>
</defs>
</svg>
