<svg width="60" height="60" viewBox="0 0 60 60" fill="none" xmlns="http://www.w3.org/2000/svg">
<circle cx="30" cy="30" r="30" fill="url(#paint0_linear_6_430)"/>
<path fill-rule="evenodd" clip-rule="evenodd" d="M34.7967 29.2378V27.911C34.7967 27.217 35.3613 26.6524 36.0553 26.6524H46.7407C47.4347 26.6524 48 27.217 48 27.911V29.2378H34.7967ZM31.9702 43.462H20.0986C19.8652 43.462 19.6767 43.2729 19.6767 43.0402V41.4574C19.6767 40.3521 20.5753 39.4528 21.6806 39.4528H23.6128V37.856H28.4552V39.4528H30.3874C31.4927 39.4528 32.392 40.3521 32.392 41.4574V43.0402C32.392 43.2729 32.2029 43.462 31.9702 43.462ZM33.953 37.0123H14.802C13.2572 37.0123 12 35.7558 12 34.211V31.684H33.953V37.0123ZM16.3763 35.9962C15.5578 35.9962 14.892 35.3304 14.892 34.5119C14.892 33.6935 15.5578 33.0277 16.3763 33.0277C17.1947 33.0277 17.8605 33.6935 17.8605 34.5119C17.8605 35.3304 17.1947 35.9962 16.3763 35.9962ZM16.3763 33.8714C16.0233 33.8714 15.7357 34.159 15.7357 34.5119C15.7357 34.8649 16.0233 35.1525 16.3763 35.1525C16.7292 35.1525 17.0168 34.8649 17.0168 34.5119C17.0168 34.159 16.7292 33.8714 16.3763 33.8714ZM12 30.8402V16.7911C12 15.2463 13.2572 13.9898 14.8013 13.9898H37.2668C38.8116 13.9898 40.068 15.2463 40.068 16.7911V25.8087H36.0553C34.8959 25.8087 33.953 26.7516 33.953 27.911V30.8402H12ZM46.7407 46.0102H36.0553C35.3613 46.0102 34.7967 45.4455 34.7967 44.7516V43.6139H48V44.7516C48 45.4455 47.4347 46.0102 46.7407 46.0102ZM42.3398 45.2339H40.4562C40.2234 45.2339 40.0343 45.0455 40.0343 44.812C40.0343 44.5793 40.2234 44.3902 40.4562 44.3902H42.3398C42.5733 44.3902 42.7617 44.5793 42.7617 44.812C42.7617 45.0455 42.5733 45.2339 42.3398 45.2339ZM34.7967 42.7702V30.0816H48V42.7702H34.7967ZM42.3398 28.3666H40.4562C40.2234 28.3666 40.0343 28.1782 40.0343 27.9448C40.0343 27.712 40.2234 27.5229 40.4562 27.5229H42.3398C42.5733 27.5229 42.7617 27.712 42.7617 27.9448C42.7617 28.1782 42.5733 28.3666 42.3398 28.3666Z" fill="url(#paint1_linear_6_430)"/>
<defs>
<linearGradient id="paint0_linear_6_430" x1="30" y1="0" x2="30" y2="60" gradientUnits="userSpaceOnUse">
<stop stop-color="#FFFBE7"/>
<stop offset="1" stop-color="#FFF1A0"/>
</linearGradient>
<linearGradient id="paint1_linear_6_430" x1="26" y1="15" x2="26" y2="39.5" gradientUnits="userSpaceOnUse">
<stop stop-color="#FE2904"/>
<stop offset="1" stop-color="#FFD401"/>
</linearGradient>
</defs>
</svg>
